<?xml version="1.0" encoding="utf-8"?>
<!-- Generator: Adobe Illustrator 16.0.0, SVG Export Plug-In . SVG Version: 6.00 Build 0)  -->
<!DOCTYPE svg PUBLIC "-//W3C//DTD SVG 1.1//EN" "http://www.w3.org/Graphics/SVG/1.1/DTD/svg11.dtd">
<svg version="1.1" xmlns="http://www.w3.org/2000/svg" xmlns:xlink="http://www.w3.org/1999/xlink" x="0px" y="0px" width="1250px"
	 height="750px" viewBox="0 0 1250 750" enable-background="new 0 0 1250 750" xml:space="preserve">
<g id="Layer_6">
	<path fill="#000045" stroke="#010133" stroke-width="7" stroke-miterlimit="10" d="M628.589,368.564
		c0,0-18.977,65.883-17.487,95.71s5.077,114.124,5.077,114.124l50.501-20.017c0,0-17.154,66.493-7.711,117.826
		c8.777-26,23.943-45.069,55.693-50.868c-12.916,14.868-16.194,32.854-17.889,44.527c0,0,19.425-19.858,35.559-24.867"/>
</g>
<g id="Layer_3">
	<path fill="#42332A" stroke="#B49D86" stroke-width="7" stroke-miterlimit="10" d="M613.504,520.365
		c0,0,38.861,97.17,29.147,139.547c-9.716,42.377-21.629,66.292-19.189,93.02c2.439,26.728,9.784,102.689,9.628,106.91
		c-0.155,4.22-65.515-45.017-65.515-45.017l-27.777-181.659l7.743-119.035"/>
	<g>
		<path fill="#B49D86" d="M602.391,615.211c0,0-0.558,3.313-1.433,9.196c-0.876,5.872-2.051,14.28-3.295,24.396
			c-1.248,10.115-2.546,21.938-3.662,34.633c-0.574,6.347-1.074,12.912-1.525,19.588c-0.454,6.675-0.811,13.463-1.108,20.254
			c-0.259,6.791-0.467,13.587-0.526,20.277c-0.025,3.345-0.067,6.665-0.018,9.943c0.014,1.64,0.027,3.27,0.041,4.888
			c0.04,1.617,0.079,3.223,0.118,4.815c0.043,1.593,0.086,3.172,0.128,4.737c0.071,1.563,0.143,3.111,0.212,4.643
			c0.115,3.066,0.317,6.06,0.523,8.974c0.17,2.917,0.44,5.745,0.699,8.481c0.134,1.368,0.235,2.717,0.391,4.033
			c0.159,1.317,0.315,2.608,0.469,3.874c0.153,1.267,0.303,2.506,0.45,3.718c0.185,1.206,0.366,2.384,0.542,3.532
			c0.359,2.297,0.656,4.484,1.079,6.514c0.393,2.035,0.76,3.94,1.099,5.702c0.41,1.747,0.787,3.351,1.127,4.8
			c0.17,0.726,0.332,1.412,0.483,2.058c0.18,0.638,0.35,1.235,0.507,1.792c0.319,1.112,0.591,2.059,0.811,2.826
			c0.44,1.535,0.675,2.354,0.675,2.354s-0.261-0.811-0.75-2.33c-0.245-0.761-0.546-1.698-0.901-2.801
			c-0.176-0.553-0.364-1.146-0.565-1.779c-0.173-0.641-0.356-1.322-0.549-2.043c-0.388-1.44-0.817-3.036-1.284-4.773
			c-0.397-1.754-0.827-3.651-1.286-5.679c-0.489-2.023-0.858-4.204-1.292-6.497c-0.214-1.146-0.433-2.323-0.658-3.527
			c-0.186-1.211-0.376-2.449-0.571-3.714c-0.195-1.266-0.394-2.558-0.596-3.874c-0.198-1.317-0.343-2.666-0.522-4.034
			c-0.349-2.739-0.711-5.571-0.975-8.492c-0.301-2.919-0.601-5.919-0.814-8.992c-0.12-1.536-0.241-3.089-0.363-4.656
			c-0.093-1.569-0.187-3.153-0.282-4.751c-0.09-1.599-0.182-3.21-0.274-4.833c-0.065-1.624-0.131-3.26-0.198-4.906
			c-0.155-3.292-0.22-6.625-0.303-9.985c-0.156-6.722-0.167-13.551-0.125-20.381c0.08-6.829,0.219-13.658,0.459-20.377
			c0.238-6.718,0.528-13.329,0.9-19.722c0.712-12.787,1.635-24.707,2.562-34.913c0.924-10.207,1.834-18.703,2.527-24.649
			c0.689-5.937,1.152-9.358,1.152-9.358L602.391,615.211z"/>
	</g>
	<path fill="#6E936A" stroke="#2A5426" stroke-width="7" stroke-miterlimit="10" d="M390.887,595.316
		c0,0-60.295,218.04-20.375,358.71c39.921,140.672,258.077-16.881,258.077-16.881s-68.502-103.854-75.404-360.725
		C546.285,319.55,390.887,595.316,390.887,595.316z"/>
	<polygon fill="#6E936A" points="539.366,618.713 603.571,646.294 521.858,673.052 	"/>
	<path fill="#6E936A" stroke="#2A5426" stroke-width="7" stroke-miterlimit="10" d="M517.875,585.097
		c0,0,326.394-126.656,473.214-96.794c20.33,5.972,73.412,17.48,24.848,80.41c-16.941,22.317-39.527,40.512-39.527,40.512
		s-215.563-22.198-419.017,50.61"/>
	<g>
		<path fill="#6E936A" d="M557.435,659.835c-9.344,3.162-18.664,6.503-27.94,10.032"/>
		<polygon fill="#2A5426" points="558.619,663.129 529.495,669.867 556.251,656.541 		"/>
		<path fill="#6E936A" d="M557.435,659.835c-9.344,3.162-18.664,6.503-27.94,10.032"/>
		<path fill="#6E936A" d="M557.435,659.835c-9.344,3.162-18.664,6.503-27.94,10.032"/>
		<path fill="#6E936A" d="M557.435,659.835c-9.344,3.162-18.664,6.503-27.94,10.032"/>
		<path fill="#6E936A" d="M557.435,659.835c-9.344,3.162-18.664,6.503-27.94,10.032"/>
		<path fill="#6E936A" d="M557.435,659.835c-9.344,3.162-18.664,6.503-27.94,10.032"/>
		<path fill="#6E936A" d="M557.435,659.835c-9.344,3.162-18.664,6.503-27.94,10.032"/>
	</g>
	<polyline fill="#6E936A" points="372.333,607 387.384,641 401,621 401,595 372.333,605.666 	"/>
	<path fill="#695A4C" stroke="#6C5339" stroke-width="7" stroke-miterlimit="10" d="M1015.937,568.819
		c44.195-57.269,4.214-71.95-18.66-78.629c-26.277,33.416-41.843,117.587-41.843,117.587l20.976,1.554
		C976.409,609.331,998.995,591.137,1015.937,568.819z"/>
</g>
<g id="Layer_5">
	<path fill="#E6E7E8" stroke="#B6B4B7" stroke-width="7" stroke-miterlimit="10" d="M737.965,512.731
		c0,0-26.042,343.836-75.323,377.598c-49.282,33.76,264.159,4.689,264.159,4.689s35.369-186.867-54.81-373.693
		C781.813,334.5,737.965,512.731,737.965,512.731z"/>
	<polygon fill="#E6E7E8" points="751.162,578.398 682.293,617.587 776.854,640.235 	"/>
	<path fill="#E6E7E8" stroke="#B6B4B7" stroke-width="7" stroke-miterlimit="10" d="M771.491,536.696
		c0,0-361.139-115.433-513.892-65.555c-20.945,9.061-76.092,27.928-17.436,96.784c20.502,24.448,46.549,43.492,46.549,43.492
		s226.688-47.854,451.115,16.899"/>
	<path fill="#E6E7E8" d="M887,683c0,0,56.994-96.334,61.497-95.417C941,564,927.545,538.741,927.545,538.741L865,553.512l4.5,65.201
		L887,683z"/>
	<g>
		<path fill="#F1F2F2" d="M737.422,628.317c16.633,5.318,26.216,8.819,31.796,10.845"/>
		<path fill="#B6B4B7" d="M738.528,624.997c0,0,7.694,3.478,15.389,6.955c1.922,0.877,3.853,1.716,5.642,2.593
			c1.791,0.856,3.462,1.654,4.896,2.339c2.858,1.367,4.764,2.278,4.764,2.278s-2.05-0.498-5.126-1.246
			c-1.534-0.372-3.324-0.807-5.242-1.272c-1.905-0.483-3.98-0.909-6.039-1.371c-8.247-1.817-16.495-3.635-16.495-3.635
			L738.528,624.997z"/>
	</g>
	<g>
		<path fill="#EAE8EB" d="M916.469,633.082c-8.731,12.88-16.484,25.2-23.005,36.785"/>
		<path fill="#B6B4B7" d="M919.4,634.993c0,0-6.666,8.605-13.332,17.21c-0.846,1.069-1.582,2.19-2.367,3.268
			c-0.771,1.085-1.531,2.152-2.267,3.186c-1.474,2.073-2.85,4.007-4.028,5.665c-2.365,3.327-3.942,5.546-3.942,5.546
			s1.2-2.441,3.001-6.103c0.903-1.837,1.958-3.979,3.088-6.276c0.567-1.15,1.152-2.34,1.748-3.548
			c0.607-1.2,1.175-2.462,1.836-3.648c5.2-9.561,10.4-19.121,10.4-19.121l0.003-0.006c0.927-1.704,3.059-2.334,4.763-1.407
			c1.703,0.927,2.334,3.059,1.407,4.763C919.621,634.683,919.51,634.851,919.4,634.993z"/>
	</g>
	<path fill="#E6E7E8" stroke="#B6B4B7" stroke-width="7" stroke-miterlimit="10" d="M882.632,546.381
		c0,0,209.781-381.501,263.022-399.879c0,0,56.003,52.733,56.258,106.541c0.083,17.537-191.818,241.929-285.443,380.039"/>
	<g>
		<path fill="#6E936A" d="M383.137,626.925c13.866,16.151,22.274,29.725,22.774,39.608"/>
		<path fill="#2A5426" d="M385.81,624.665c0,0,0.426,0.589,1.171,1.618c0.745,1.013,1.812,2.522,3.087,4.347
			c1.258,1.821,2.692,3.96,4.181,6.287c1.468,2.344,3.011,4.854,4.417,7.452c0.726,1.281,1.381,2.611,2.044,3.9
			c0.618,1.32,1.252,2.597,1.772,3.884c0.561,1.263,1.006,2.532,1.45,3.716c0.38,1.215,0.774,2.342,1.021,3.424
			c0.299,1.063,0.464,2.065,0.628,2.943c0.15,0.881,0.197,1.663,0.277,2.294c0.044,1.281,0.053,2.003,0.053,2.003
			s-0.127-0.713-0.35-1.959c-0.174-0.61-0.333-1.357-0.608-2.188c-0.289-0.829-0.591-1.763-1.036-2.744
			c-0.391-0.997-0.94-2.03-1.475-3.13c-0.602-1.075-1.205-2.214-1.929-3.346c-0.68-1.149-1.48-2.287-2.257-3.454
			c-0.827-1.142-1.639-2.311-2.525-3.437c-1.721-2.279-3.572-4.469-5.32-6.5c-1.77-2.019-3.464-3.869-4.933-5.43
			c-1.47-1.544-2.705-2.828-3.612-3.738c-0.892-0.905-1.401-1.423-1.401-1.423L385.81,624.665z"/>
	</g>
	<path fill="#6E936A" stroke="#2A5426" stroke-width="7" stroke-miterlimit="10" d="M383.137,626.925
		C306.187,537.292,61.166,368.259,67.2,309.849c7.122-68.935,73.496-102.099,73.496-102.099l263.618,356.376"/>
	<path fill="#695A4C" stroke="#6C5339" stroke-width="7" stroke-miterlimit="10" d="M166.624,242.029l-26.884-36.344
		c0,0-66.375,33.164-73.496,102.099c-0.862,8.343,3.406,18.947,11.567,31.25C98.163,325.038,151.664,285.047,166.624,242.029z"/>
</g>
<g id="Layer_2">
	<path fill="#6E936A" stroke="#2A5426" stroke-width="7" stroke-miterlimit="10" d="M310.692,353.347
		c0,0-26.104-86.931-5.266-173.069c0,0,86.824,13.647,99.535,130.756"/>
	<path fill="#6E936A" stroke="#2A5426" stroke-width="6" stroke-miterlimit="10" d="M618.736,447.968"/>
	<g>
		<path fill="#6E936A" d="M694.127,330.67c-7.863,37.089-28.822,75.87-70.563,108.977"/>
		<path fill="#2A5426" d="M697.048,331.353c0,0-0.517,2.006-1.421,5.515c-0.113,0.438-0.232,0.901-0.357,1.386
			c-0.147,0.491-0.302,1.005-0.463,1.541c-0.323,1.071-0.673,2.229-1.046,3.466c-0.696,2.499-1.738,5.184-2.753,8.171
			c-0.493,1.496-1.165,2.999-1.773,4.583c-0.648,1.57-1.229,3.227-2.002,4.858c-0.739,1.644-1.498,3.333-2.274,5.059
			c-0.793,1.717-1.703,3.424-2.573,5.184c-0.443,0.876-0.891,1.759-1.342,2.648c-0.486,0.87-0.978,1.746-1.471,2.628
			c-1.009,1.749-1.936,3.572-3.041,5.311c-1.084,1.749-2.177,3.512-3.273,5.282c-1.129,1.748-2.34,3.452-3.508,5.183
			c-0.596,0.856-1.16,1.734-1.781,2.571l-1.875,2.498c-1.268,1.646-2.442,3.351-3.765,4.921c-1.302,1.584-2.594,3.156-3.87,4.708
			c-1.258,1.566-2.646,2.992-3.931,4.458c-2.556,2.949-5.241,5.598-7.736,8.151c-1.228,1.296-2.509,2.471-3.736,3.617
			c-1.226,1.146-2.409,2.255-3.546,3.318c-2.287,2.11-4.504,3.911-6.404,5.576c-1.889,1.679-3.656,2.997-5.071,4.131
			c-2.845,2.246-4.47,3.529-4.47,3.529s1.565-1.355,4.305-3.728c1.36-1.195,3.063-2.588,4.871-4.349
			c1.818-1.746,3.943-3.637,6.123-5.84c1.083-1.109,2.211-2.265,3.377-3.46c1.168-1.194,2.387-2.416,3.548-3.759
			c2.362-2.648,4.903-5.391,7.302-8.427c1.205-1.51,2.512-2.978,3.686-4.583c1.191-1.59,2.396-3.199,3.611-4.821
			c1.233-1.606,2.316-3.343,3.491-5.02l1.733-2.541c0.574-0.851,1.09-1.741,1.638-2.609c1.07-1.754,2.185-3.479,3.214-5.245
			c0.996-1.784,1.989-3.561,2.975-5.323c1.006-1.75,1.831-3.579,2.74-5.333c0.443-0.883,0.884-1.761,1.321-2.632
			c0.4-0.889,0.799-1.771,1.192-2.646c0.771-1.757,1.584-3.46,2.281-5.169c0.68-1.715,1.344-3.393,1.991-5.026
			c0.681-1.619,1.171-3.26,1.732-4.812c0.521-1.567,1.108-3.051,1.521-4.527c0.85-2.937,1.751-5.611,2.3-8.007
			c0.303-1.193,0.587-2.311,0.849-3.344c0.131-0.516,0.256-1.012,0.376-1.485c0.103-0.49,0.201-0.957,0.294-1.4
			c0.745-3.547,1.171-5.573,1.171-5.573L697.048,331.353z"/>
	</g>
	<path fill="#42332A" stroke="#B49D86" stroke-miterlimit="10" d="M623.462,215.795"/>
	<g>
		<path fill="#6E936A" stroke="#2A5426" stroke-width="6" stroke-miterlimit="10" d="M693.778,271.845l-29.746-66.657l-18.043-6.789
			l-20.461,3.801l-14.746,61.723l-11.871,25.132l-95.538,4.731L353.946,275.7l-38.008,38.74l-1.565-0.547
			c0,0-121.95,227.069,104.801,297.024c0,0,198.252,40.056,217.849-184.287l-1.177-0.411l31.158-38.541l13.136-29.512l13.509-23.238
			L693.778,271.845z"/>
		<g>
			<path fill="#FFFFFF" d="M335.636,486.43c-3.29-7.233-5.708-15.169-7.052-23.596c-0.317-1.986-0.562-4.004-0.758-6.04
				c-0.303-3.15-0.478-6.35-0.478-9.602c0-6.802,0.685-13.402,1.969-19.702c6.989-34.297,31.797-59.655,61.331-59.655
				c6.701,0,13.155,1.316,19.217,3.735c-8.739-17.416-22.055-29.084-38.045-31.02c-32.857-3.977-64.556,34.637-70.804,86.247
				c-6.246,51.607,15.325,96.668,48.182,100.645c7.965,0.964,15.861-0.581,23.344-4.201
				C356.796,517.352,343.622,503.989,335.636,486.43z"/>
			<path fill="#FFFFFF" d="M531.404,510.926c-5.215-8.661-9.182-18.57-11.564-29.307c-0.058-0.262-0.114-0.525-0.17-0.788
				c-1.558-7.284-2.394-14.939-2.394-22.84c0-4.607,0.284-9.131,0.829-13.547c5.197-42.14,34.254-74.401,69.323-74.401
				c7.94,0,15.571,1.656,22.688,4.704c-10.34-20.673-26.02-34.488-44.844-36.767c-38.99-4.718-76.696,41.839-84.219,103.991
				c-7.523,62.151,17.986,116.36,56.976,121.081c15.858,1.919,31.503-4.644,44.991-17.287
				C561.939,544.127,543.381,530.816,531.404,510.926z"/>
			<path fill="#F1F2F2" d="M594.28,533.129c-18.252-1.88-34.187-13.965-44.176-31.705l-18.699,9.502
				c11.977,19.891,30.535,33.201,51.615,34.84C586.976,542.058,590.744,537.822,594.28,533.129z"/>
			<linearGradient id="SVGID_1_" gradientUnits="userSpaceOnUse" x1="562.8423" y1="370.043" x2="562.8423" y2="545.9398">
				<stop  offset="0" style="stop-color:#2F66B5"/>
				<stop  offset="1" style="stop-color:#78B4FF"/>
			</linearGradient>
			<path fill="url(#SVGID_1_)" d="M594.28,533.129c-18.252-1.88-34.187-13.965-44.176-31.705l-18.699,9.502
				c11.977,19.891,30.535,33.201,51.615,34.84C586.976,542.058,590.744,537.822,594.28,533.129z"/>
			<path fill="#F1F2F2" d="M518.104,444.444l21.691,2.144c4.384-36.24,29.34-64.014,59.472-64.014
				c5.305,0,10.446,0.869,15.346,2.485c-1.36-3.597-2.861-7.041-4.497-10.313c-7.117-3.048-14.748-4.704-22.688-4.704
				C552.358,370.043,523.301,402.305,518.104,444.444z"/>
			<linearGradient id="SVGID_2_" gradientUnits="userSpaceOnUse" x1="566.3584" y1="370.043" x2="566.3584" y2="545.9397">
				<stop  offset="0" style="stop-color:#2F66B5"/>
				<stop  offset="1" style="stop-color:#78B4FF"/>
			</linearGradient>
			<path fill="url(#SVGID_2_)" d="M518.104,444.444l21.691,2.144c4.384-36.24,29.34-64.014,59.472-64.014
				c5.305,0,10.446,0.869,15.346,2.485c-1.36-3.597-2.861-7.041-4.497-10.313c-7.117-3.048-14.748-4.704-22.688-4.704
				C552.358,370.043,523.301,402.305,518.104,444.444z"/>
			<path fill="#C0CEEB" d="M519.84,481.619c2.383,10.736,6.349,20.646,11.564,29.307l18.699-9.502
				c-4.195-7.449-7.347-15.885-9.173-24.986L519.84,481.619z"/>
			<path fill="#91A8DB" d="M539.111,457.99c0-3.876,0.235-7.684,0.685-11.402l-21.691-2.144c-0.544,4.416-0.829,8.939-0.829,13.547
				c0,7.9,0.836,15.556,2.394,22.84l21.11-5.219C539.699,469.957,539.111,464.062,539.111,457.99z"/>
			<path fill="#91A8DB" d="M540.779,475.612l-21.11,5.219c0.056,0.263,0.112,0.526,0.17,0.788l21.091-5.182
				C540.876,476.164,540.832,475.887,540.779,475.612z"/>
			<path d="M614.613,385.06c-4.9-1.616-10.041-2.485-15.346-2.485c-30.132,0-55.087,27.773-59.472,64.014l0.271,0.027l3.324,28.352
				l4.021-0.994l8.361,24.57l-5.669,2.881c9.99,17.74,25.924,29.825,44.176,31.705c14.053-18.653,24.404-44.605,27.97-74.067
				C625.566,431.663,622.46,405.812,614.613,385.06z"/>
			<path d="M547.412,473.973l-4.021,0.994l0.099,0.842l-2.559,0.629c1.826,9.102,4.978,17.537,9.173,24.986l5.669-2.881
				L547.412,473.973z"/>
			<path d="M540.779,475.612l2.612-0.646l-3.324-28.352l-0.271-0.027c-0.45,3.719-0.685,7.526-0.685,11.402
				C539.111,464.062,539.699,469.957,540.779,475.612z"/>
			<path d="M540.931,476.438l2.559-0.629l-0.099-0.842l-2.612,0.646C540.832,475.887,540.876,476.164,540.931,476.438z"/>
			<path fill="#F1F2F2" d="M352.188,475.313l-16.552,11.117c7.986,17.56,21.16,30.922,36.907,36.811
				c5.184-2.508,10.169-6.012,14.841-10.378C371.681,507.526,358.813,493.581,352.188,475.313z"/>
			<linearGradient id="SVGID_3_" gradientUnits="userSpaceOnUse" x1="361.5103" y1="367.835" x2="361.5103" y2="526.5491">
				<stop  offset="0" style="stop-color:#2F66B5"/>
				<stop  offset="1" style="stop-color:#78B4FF"/>
			</linearGradient>
			<path fill="url(#SVGID_3_)" d="M352.188,475.313l-16.552,11.117c7.986,17.56,21.16,30.922,36.907,36.811
				c5.184-2.508,10.169-6.012,14.841-10.378C371.681,507.526,358.813,493.581,352.188,475.313z"/>
			<path fill="#F1F2F2" d="M329.317,427.49l19.41,4.407c5.538-30.214,27.105-52.755,52.886-52.755c4.23,0,8.342,0.627,12.294,1.774
				c-1.21-3.268-2.56-6.391-4.043-9.347c-6.062-2.419-12.516-3.735-19.217-3.735C361.114,367.835,336.307,393.193,329.317,427.49z"
				/>
			<linearGradient id="SVGID_4_" gradientUnits="userSpaceOnUse" x1="371.6128" y1="367.835" x2="371.6128" y2="526.5491">
				<stop  offset="0" style="stop-color:#2F66B5"/>
				<stop  offset="1" style="stop-color:#78B4FF"/>
			</linearGradient>
			<path fill="url(#SVGID_4_)" d="M329.317,427.49l19.41,4.407c5.538-30.214,27.105-52.755,52.886-52.755
				c4.23,0,8.342,0.627,12.294,1.774c-1.21-3.268-2.56-6.391-4.043-9.347c-6.062-2.419-12.516-3.735-19.217-3.735
				C361.114,367.835,336.307,393.193,329.317,427.49z"/>
			<path fill="#C0CEEB" d="M328.584,462.834c1.344,8.427,3.762,16.362,7.052,23.596l16.552-11.117
				c-1.722-4.748-3.025-9.784-3.842-15.041L328.584,462.834z"/>
			<path fill="#91A8DB" d="M347.334,447.191c0-5.262,0.492-10.376,1.394-15.294l-19.41-4.407c-1.284,6.3-1.969,12.9-1.969,19.702
				c0,3.252,0.174,6.451,0.478,9.602l19.755-3.191C347.424,451.491,347.334,449.354,347.334,447.191z"/>
			<path fill="#91A8DB" d="M347.581,453.603l-19.755,3.191c0.196,2.036,0.441,4.054,0.758,6.04l19.762-2.563
				C348.006,458.084,347.75,455.859,347.581,453.603z"/>
			<path d="M348.728,431.897l1.385,0.314v20.981l1.396-0.226l2.675,21.005l-1.995,1.34c6.624,18.269,19.492,32.214,35.196,37.55
				c16.4-15.326,28.934-41.233,32.617-71.663c2.691-22.23,0.217-43.242-6.093-60.282c-3.952-1.147-8.064-1.774-12.294-1.774
				C375.833,379.143,354.265,401.684,348.728,431.897z"/>
			<path d="M351.509,452.968l-1.396,0.226v6.85l-1.766,0.229c0.816,5.257,2.12,10.293,3.842,15.041l1.995-1.34L351.509,452.968z"/>
			<path d="M347.581,453.603l2.531-0.409v-20.981l-1.385-0.314c-0.901,4.918-1.394,10.032-1.394,15.294
				C347.334,449.354,347.424,451.491,347.581,453.603z"/>
			<path d="M348.347,460.271l1.766-0.229v-6.85l-2.531,0.409C347.75,455.859,348.006,458.084,348.347,460.271z"/>
		</g>
	</g>
	<ellipse fill="#FFFFFF" cx="351.686" cy="390.883" rx="25.394" ry="28.048"/>
	<path fill="#6E936A" d="M300.749,386.445c0,0,58.833-63.969,182.993,12.867c-5.672-40.556-43.738-97.265-43.738-97.265
		l-120.335,10.088L300.749,386.445z"/>
	<g>
		<path d="M443.654,387.376c-2.426-1.493-4.835-2.96-7.311-4.303c-2.468-1.356-4.981-2.61-7.518-3.79
			c-2.527-1.199-5.127-2.229-7.721-3.237c-2.589-1.022-5.235-1.889-7.886-2.708c-2.662-0.792-5.338-1.517-8.027-2.178
			c-2.695-0.643-5.412-1.184-8.138-1.656c-2.732-0.447-5.466-0.86-8.214-1.18c-2.749-0.313-5.504-0.561-8.265-0.743
			c-2.761-0.179-5.528-0.271-8.295-0.325c-2.768-0.05-5.538-0.01-8.308,0.063c-5.539,0.167-11.076,0.577-16.593,1.194
			c-5.517,0.625-11.014,1.469-16.474,2.508c-2.731,0.512-5.445,1.114-8.15,1.732c-2.686,0.617-5.428,1.345-7.97,2.087l1.731-1.655
			c-0.67,1.601-1.332,3.317-1.964,4.998c-0.638,1.69-1.244,3.396-1.845,5.104c-1.188,3.421-2.305,6.871-3.347,10.344
			c-1.033,3.476-2.061,6.956-2.959,10.472c-0.453,1.756-0.898,3.516-1.303,5.283c-0.42,1.766-0.797,3.539-1.174,5.314
			c-0.347,1.78-0.716,3.558-1.034,5.344c-0.343,1.783-0.62,3.576-0.91,5.369c-0.248,1.796-0.527,3.594-0.714,5.398
			c-0.229,1.804-0.361,3.612-0.538,5.423c-0.122,1.811-0.282,3.627-0.323,5.443c-0.09,1.819-0.081,3.638-0.083,5.461
			c0.055,1.818,0.053,3.647,0.207,5.467c0.091,1.826,0.32,3.639,0.502,5.466c-0.399-1.787-0.823-3.579-1.096-5.396
			c-0.337-1.811-0.538-3.64-0.762-5.471c-0.159-1.834-0.331-3.673-0.401-5.516c-0.12-1.844-0.12-3.688-0.157-5.536
			c0.01-1.846,0.037-3.694,0.128-5.539c0.057-1.848,0.207-3.688,0.327-5.533c0.162-1.839,0.312-3.683,0.528-5.518
			c0.181-1.842,0.45-3.669,0.705-5.5c0.279-1.826,0.561-3.653,0.886-5.473c0.31-1.822,0.66-3.637,1.02-5.449
			c0.728-3.624,1.515-7.238,2.442-10.817c0.917-3.581,1.911-7.144,2.981-10.687c0.542-1.77,1.09-3.538,1.673-5.3
			c0.586-1.771,1.169-3.498,1.839-5.304l0.434-1.169l1.297-0.486c2.82-1.058,5.527-1.86,8.313-2.668
			c2.77-0.799,5.566-1.484,8.371-2.125c5.612-1.274,11.289-2.264,17.005-2.967c5.716-0.71,11.473-1.119,17.242-1.232
			c2.884-0.075,5.772-0.012,8.658,0.088c2.886,0.103,5.77,0.289,8.645,0.587c2.875,0.292,5.746,0.64,8.597,1.125
			c2.85,0.486,5.694,1.017,8.503,1.708c2.809,0.689,5.598,1.451,8.354,2.315c2.753,0.877,5.485,1.817,8.149,2.932
			c2.663,1.114,5.302,2.272,7.867,3.582c2.569,1.298,5.068,2.726,7.499,4.25c2.447,1.494,4.789,3.151,7.058,4.885l1.693,1.308
			l1.643,1.377C441.575,385.444,442.6,386.42,443.654,387.376z"/>
	</g>
	<ellipse fill="#FFFFFF" cx="535.638" cy="408.875" rx="28.338" ry="31.3"/>
	<path fill="#6E936A" d="M487.884,530.483c0,0,61.74-26.076,104.131,5.969c-13.888,21.094-26.244,29.783-26.244,29.783l-39.001,1.32
		L487.884,530.483z"/>
	<path fill="#6E936A" d="M302.457,503.212c0,0,62.779-19.16,103.454,13.268c-14.863,18.206-27.597,25.209-27.597,25.209
		l-38.919-1.726L302.457,503.212z"/>
	<path fill="#6E936A" d="M450.204,406.043c0,0,58.833-63.97,182.993,12.867c-5.672-40.557-43.738-97.266-43.738-97.266
		l-120.335,10.088L450.204,406.043z"/>
	<g>
		<path fill="#2A5426" d="M488.642,530.182c0,0,0.356-0.271,1.053-0.72c0.701-0.436,1.717-1.12,3.069-1.843
			c1.348-0.73,2.989-1.648,4.938-2.501c0.968-0.453,2.009-0.902,3.108-1.39c1.102-0.474,2.279-0.908,3.507-1.383
			c2.468-0.893,5.172-1.801,8.083-2.583c2.908-0.799,6.016-1.504,9.267-2.079c1.627-0.284,3.285-0.553,4.979-0.744
			c0.846-0.104,1.697-0.209,2.553-0.314c0.86-0.066,1.726-0.133,2.594-0.199c3.474-0.304,7.033-0.297,10.593-0.246
			c1.782,0.12,3.563,0.187,5.337,0.355c1.775,0.173,3.537,0.363,5.281,0.66c0.872,0.141,1.739,0.28,2.603,0.419
			c0.861,0.152,1.712,0.369,2.56,0.549c0.845,0.189,1.686,0.377,2.521,0.564c0.83,0.221,1.646,0.473,2.457,0.705
			c1.624,0.451,3.206,0.965,4.727,1.552c1.531,0.539,3.007,1.146,4.415,1.798c0.705,0.324,1.405,0.619,2.079,0.955
			c0.67,0.347,1.331,0.684,1.969,1.036c0.638,0.348,1.265,0.689,1.881,1.025c0.607,0.351,1.19,0.724,1.756,1.092
			c0.564,0.366,1.117,0.726,1.657,1.076c0.542,0.344,1.064,0.688,1.541,1.086c0.962,0.756,1.875,1.473,2.733,2.146
			c1.683,1.373,3.006,2.753,4.111,3.821c1.061,1.139,1.813,2.112,2.351,2.733c0.526,0.637,0.789,0.991,0.789,0.991l-0.43,0.553
			c0,0-1.379-0.973-3.792-2.674c-1.262-0.765-2.772-1.731-4.56-2.74c-1.821-0.952-3.857-2.057-6.18-3.058
			c-0.577-0.257-1.157-0.54-1.764-0.791c-0.613-0.236-1.238-0.478-1.874-0.724c-0.635-0.245-1.281-0.494-1.937-0.748
			c-0.66-0.243-1.346-0.443-2.033-0.672c-1.375-0.453-2.788-0.917-4.267-1.279c-0.734-0.196-1.477-0.395-2.227-0.594
			c-0.751-0.193-1.523-0.336-2.293-0.509c-0.772-0.166-1.551-0.334-2.335-0.502c-0.792-0.134-1.589-0.268-2.391-0.402
			c-1.6-0.296-3.234-0.494-4.883-0.691c-3.294-0.408-6.665-0.605-10.035-0.741c-3.373-0.089-6.75-0.124-10.071,0.025
			c-3.323,0.1-6.586,0.385-9.739,0.689c-3.15,0.338-6.189,0.734-9.057,1.206c-2.872,0.446-5.568,0.982-8.053,1.492
			c-4.962,1.054-9.067,2.083-11.914,2.895c-2.85,0.811-4.441,1.361-4.442,1.361L488.642,530.182z"/>
	</g>
	<g>
		<path d="M631.467,421.479c-2.354-1.997-4.743-3.905-7.193-5.724c-2.471-1.793-4.99-3.499-7.563-5.107
			c-2.582-1.595-5.219-3.083-7.899-4.48c-2.68-1.395-5.393-2.718-8.167-3.902c-2.78-1.171-5.562-2.324-8.394-3.352
			c-2.833-1.023-5.688-1.979-8.578-2.826c-2.894-0.832-5.79-1.654-8.717-2.362c-2.93-0.698-5.868-1.358-8.824-1.942
			c-2.959-0.571-5.93-1.08-8.909-1.548c-2.979-0.471-5.975-0.829-8.972-1.187c-5.997-0.687-12.026-1.139-18.067-1.407
			c-6.042-0.263-12.096-0.331-18.148-0.224c-3.026,0.053-6.05,0.179-9.07,0.324c-3.003,0.148-6.07,0.383-8.974,0.665l2.356-2.021
			c-0.545,1.688-1.079,3.449-1.597,5.187l-1.515,5.25c-0.983,3.51-1.921,7.035-2.811,10.573c-0.878,3.541-1.784,7.077-2.592,10.637
			c-0.818,3.558-1.585,7.127-2.302,10.707c-0.692,3.583-1.393,7.168-2.004,10.77c-0.291,1.802-0.597,3.604-0.853,5.412
			c-0.284,1.806-0.496,3.618-0.756,5.429c-0.22,1.813-0.465,3.627-0.641,5.447c-0.206,1.818-0.348,3.641-0.503,5.466
			c-0.119,1.824-0.281,3.652-0.346,5.483c-0.103,1.832-0.124,3.665-0.18,5.504c-0.164-1.829-0.338-3.663-0.417-5.501
			c-0.119-1.839-0.157-3.68-0.207-5.522c-0.005-1.842-0.022-3.687,0.023-5.529c0.017-1.846,0.103-3.687,0.164-5.532
			c0.182-3.685,0.471-7.364,0.813-11.04c0.367-3.671,0.762-7.344,1.283-10.998c0.518-3.654,1.087-7.302,1.709-10.941
			c0.629-3.637,1.285-7.271,2.046-10.885c0.753-3.614,1.556-7.219,2.406-10.814l1.319-5.388c0.458-1.8,0.915-3.571,1.424-5.398
			l0.476-1.707l1.881-0.314c3.177-0.529,6.222-0.847,9.335-1.161c3.097-0.312,6.2-0.503,9.304-0.671
			c6.208-0.313,12.43-0.358,18.647-0.144c6.218,0.207,12.431,0.689,18.615,1.458c3.094,0.37,6.176,0.845,9.249,1.379
			c3.074,0.53,6.134,1.144,9.176,1.845c6.084,1.397,12.103,3.126,17.978,5.266c2.937,1.069,5.834,2.25,8.699,3.499
			c2.865,1.247,5.678,2.62,8.423,4.111c2.752,1.478,5.43,3.092,8.055,4.771c2.626,1.684,5.124,3.56,7.575,5.469
			c2.452,1.913,4.758,4.003,6.987,6.149C627.438,416.806,629.511,419.112,631.467,421.479z"/>
	</g>
	<g>
		<path fill="#2A5426" d="M295.128,505.289c0,0,0.356-0.271,1.053-0.72c0.701-0.436,1.717-1.119,3.069-1.843
			c1.348-0.729,2.989-1.648,4.938-2.501c0.968-0.453,2.009-0.902,3.108-1.389c1.102-0.475,2.28-0.909,3.508-1.383
			c2.468-0.893,5.171-1.801,8.083-2.584c2.907-0.798,6.016-1.503,9.267-2.078c1.627-0.284,3.285-0.553,4.979-0.744
			c0.846-0.104,1.697-0.209,2.553-0.314c0.86-0.066,1.725-0.132,2.593-0.199c3.474-0.303,7.033-0.297,10.594-0.246
			c1.782,0.12,3.563,0.188,5.336,0.355c1.776,0.174,3.537,0.364,5.282,0.66c0.871,0.141,1.739,0.28,2.603,0.42
			c0.861,0.151,1.712,0.368,2.56,0.549c0.846,0.188,1.686,0.377,2.521,0.563c0.83,0.222,1.646,0.474,2.457,0.706
			c1.624,0.451,3.207,0.965,4.728,1.552c1.531,0.539,3.006,1.146,4.415,1.798c0.705,0.324,1.405,0.619,2.079,0.954
			c0.67,0.348,1.331,0.684,1.969,1.037c0.638,0.348,1.265,0.689,1.88,1.024c0.607,0.352,1.19,0.725,1.756,1.093
			c0.564,0.366,1.117,0.726,1.658,1.076c0.541,0.344,1.063,0.688,1.54,1.086c0.962,0.756,1.875,1.473,2.733,2.146
			c1.683,1.373,3.006,2.753,4.111,3.821c1.061,1.139,1.813,2.112,2.351,2.733c0.526,0.637,0.789,0.991,0.789,0.991l-0.43,0.553
			c0,0-1.379-0.973-3.792-2.674c-1.262-0.765-2.772-1.731-4.56-2.74c-1.821-0.952-3.856-2.057-6.18-3.058
			c-0.577-0.257-1.157-0.54-1.764-0.791c-0.613-0.237-1.238-0.479-1.874-0.724c-0.635-0.245-1.281-0.495-1.937-0.748
			c-0.66-0.243-1.346-0.443-2.033-0.673c-1.376-0.452-2.789-0.917-4.267-1.278c-0.734-0.196-1.477-0.395-2.227-0.595
			c-0.751-0.193-1.523-0.336-2.293-0.509c-0.772-0.166-1.551-0.333-2.335-0.502c-0.792-0.133-1.589-0.267-2.391-0.401
			c-1.6-0.296-3.235-0.494-4.883-0.691c-3.295-0.409-6.666-0.606-10.036-0.742c-3.372-0.088-6.75-0.123-10.071,0.025
			c-3.323,0.1-6.586,0.385-9.739,0.689c-3.15,0.338-6.189,0.734-9.057,1.206c-2.872,0.446-5.568,0.982-8.053,1.492
			c-4.962,1.054-9.067,2.082-11.914,2.895c-2.85,0.81-4.441,1.36-4.442,1.36L295.128,505.289z"/>
	</g>
	<path fill="#42332A" d="M351.509,319.676c0,0,15.798,93.474,78.377,153.004c15.388-95.913,46.824-152.954,66.365-166.115
		c-7.146,15.055-9.88,35.035-9.88,35.035c-2.446,3.068,22.154-37.068,46.03-49.675c0,0-25.85,19.526-26.336,85.746
		c0,0,37.269-69.673,91.798-86.503c17.574-5.424,27.239-79.19,27.239-79.19l-233.239,22.678L351.509,319.676z"/>
	<path fill="#42332A" stroke="#B49D86" stroke-width="7" stroke-miterlimit="10" d="M363.295,303.791
		c-25.353,29.669-71.963,46.614-106.865,35.189c0,0,25.102-20.762,42.771-53.582c99.171-206.683,324.262-69.603,324.262-69.603"/>
	<polygon fill="#42332A" points="335.146,276.905 324.15,335.561 330.313,346.105 359.211,318.076 359.132,286.539 	"/>
	<path fill="#42332A" stroke="#B49D86" stroke-width="7" stroke-miterlimit="10" d="M322.39,335.347
		c-5.465,18.211-11.997,37.725-18.396,51.399c25.869-19.588,67.604-72.36,69.885-92.594"/>
	<g>
		<path fill="#42332A" d="M335.146,276.905c0,0-4.967,32.487-12.756,58.442"/>
		<path fill="#B49D86" d="M335.146,276.905c0,0-0.095,0.932-0.261,2.563c-0.167,1.632-0.423,3.961-0.756,6.754
			c-0.308,2.798-0.755,6.048-1.195,9.542c-0.246,1.743-0.499,3.544-0.756,5.374c-0.27,1.829-0.513,3.694-0.811,5.549
			c-0.3,1.857-0.601,3.713-0.896,5.541c-0.299,1.828-0.571,3.632-0.912,5.366c-0.323,1.738-0.635,3.418-0.931,5.011
			c-0.31,1.592-0.547,3.108-0.867,4.491c-1.211,5.554-2.019,9.257-2.019,9.257l-6.705-2.012c0,0,1.206-3.503,3.015-8.758
			c0.47-1.31,0.875-2.768,1.362-4.29c0.474-1.528,0.973-3.14,1.49-4.807c0.534-1.664,1.01-3.406,1.515-5.171
			c0.503-1.768,1.014-3.563,1.524-5.358c0.51-1.797,0.965-3.608,1.443-5.385c0.467-1.78,0.927-3.532,1.372-5.228
			c0.84-3.403,1.663-6.576,2.292-9.311c0.655-2.731,1.181-5.012,1.536-6.612C334.943,277.819,335.146,276.905,335.146,276.905z"/>
	</g>
	<g>
		<path fill="#42332A" d="M431.184,480.228c-133.849-158.494-61.602-246.144-61.602-246.144"/>
		<path fill="#B49D86" d="M430.912,480.448c0,0-0.741-0.764-2.131-2.195c-1.391-1.433-3.406-3.553-5.945-6.271
			c-1.266-1.363-2.667-2.872-4.192-4.515c-1.508-1.657-3.042-3.552-4.738-5.524c-1.694-1.976-3.442-4.126-5.318-6.37
			c-0.921-1.134-1.924-2.26-2.845-3.482c-0.924-1.222-1.87-2.472-2.836-3.749c-1.928-2.561-3.937-5.228-6.016-7.987
			c-2.023-2.802-3.971-5.803-6.054-8.833c-1.031-1.523-2.075-3.067-3.133-4.631c-1.052-1.567-1.991-3.236-3.009-4.878
			c-1.005-1.651-2.018-3.323-3.016-5.024c-0.984-1.71-2.067-3.384-2.996-5.168c-1.866-3.563-3.778-7.177-5.654-10.863
			c-1.801-3.729-3.466-7.58-5.221-11.418c-0.91-1.904-1.62-3.911-2.427-5.879c-0.792-1.974-1.586-3.952-2.382-5.936
			c-0.84-1.964-1.468-4.021-2.194-6.037l-2.114-6.078c-0.711-2.023-1.251-4.108-1.883-6.155c-0.603-2.058-1.235-4.104-1.81-6.162
			c-0.506-2.078-1.01-4.152-1.514-6.22c-0.499-2.068-1.038-4.119-1.388-6.207c-0.395-2.076-0.787-4.144-1.178-6.202l-0.292-1.54
			l-0.214-1.551c-0.142-1.032-0.282-2.062-0.423-3.088c-0.254-2.056-0.62-4.083-0.775-6.123c-0.171-2.037-0.341-4.06-0.51-6.065
			c-0.487-8.03-0.6-15.832,0.096-23.181c0.071-0.919,0.142-1.831,0.212-2.737c0.078-0.905,0.221-1.798,0.327-2.687
			c0.237-1.775,0.437-3.527,0.696-5.24c0.619-3.414,1.163-6.716,1.957-9.833c0.355-1.566,0.708-3.098,1.156-4.57
			c0.429-1.476,0.807-2.928,1.249-4.323c0.464-1.387,0.916-2.739,1.355-4.053c0.433-1.315,0.963-2.555,1.417-3.776
			c1.912-4.848,3.854-8.962,5.699-12.215c1.821-3.265,3.417-5.732,4.581-7.363c1.165-1.629,1.866-2.456,1.866-2.456l0.54,0.445
			c0,0-0.636,0.823-1.71,2.481c-1.072,1.658-2.535,4.167-4.18,7.467c-1.661,3.292-3.403,7.428-5.102,12.267
			c-0.399,1.219-0.872,2.456-1.246,3.766c-0.38,1.308-0.772,2.653-1.173,4.033c-0.379,1.386-0.694,2.829-1.057,4.292
			c-0.382,1.459-0.669,2.977-0.957,4.527c-0.658,3.083-1.061,6.345-1.536,9.704c-0.187,1.687-0.313,3.41-0.477,5.154
			c-0.069,0.873-0.176,1.749-0.216,2.637c-0.033,0.889-0.066,1.784-0.1,2.685c-0.045,1.802-0.187,3.624-0.156,5.475
			c0.019,1.849,0.038,3.72,0.057,5.612l0.019,1.421l0.09,1.428c0.06,0.954,0.12,1.913,0.18,2.876
			c0.139,1.925,0.187,3.874,0.459,5.824c0.225,1.952,0.452,3.92,0.68,5.902c0.212,1.983,0.634,3.956,0.943,5.953
			c0.168,0.997,0.336,1.997,0.505,2.999l0.254,1.505l0.333,1.496c0.443,1.996,0.889,4.002,1.336,6.016
			c0.403,2.023,0.993,4.013,1.543,6.016c0.553,2.002,1.107,4.01,1.663,6.022c0.625,1.993,1.306,3.974,1.956,5.964
			c0.68,1.981,1.265,3.994,2.022,5.951l2.279,5.863c0.78,1.944,1.458,3.923,2.352,5.817c0.849,1.909,1.696,3.815,2.541,5.714
			c0.872,1.888,1.643,3.81,2.617,5.636c1.864,3.685,3.714,7.339,5.541,10.95c1.976,3.537,3.867,7.06,5.744,10.516
			c1.885,3.453,3.941,6.738,5.783,10.051c1.834,3.319,3.814,6.458,5.701,9.543c1.907,3.071,3.683,6.112,5.545,8.963
			c1.861,2.855,3.66,5.614,5.387,8.264c3.377,5.363,6.781,10.038,9.653,14.317c1.457,2.126,2.758,4.155,4.076,5.967
			c1.303,1.824,2.5,3.5,3.581,5.014c2.154,3.033,3.827,5.433,4.95,7.082c1.124,1.649,1.724,2.529,1.724,2.529L430.912,480.448z"/>
	</g>
	<g>
		<path fill="#B49D86" d="M397.912,277.587c0,0-1.696,2.822-4.111,7.981c-2.397,5.157-5.479,12.646-8.094,21.855
			c-1.325,4.597-2.452,9.643-3.427,14.984c-1.017,5.339-1.497,11.048-1.977,16.908c-0.38,5.884-0.219,11.965,0.068,18.125
			c0.022,1.542,0.218,3.083,0.356,4.631c0.155,1.546,0.278,3.1,0.458,4.651c0.235,1.546,0.47,3.095,0.705,4.645l0.351,2.326
			c0.105,0.777,0.315,1.539,0.451,2.313c0.596,3.085,1.07,6.195,1.896,9.229c0.372,1.524,0.744,3.047,1.114,4.564
			c0.376,1.517,0.89,2.995,1.325,4.487c0.447,1.49,0.914,2.967,1.338,4.451c0.457,1.475,0.984,2.921,1.467,4.372
			c0.493,1.45,0.983,2.892,1.47,4.323c0.495,1.43,1.107,2.806,1.647,4.196c2.161,5.563,4.539,10.853,6.794,15.89
			c2.531,4.896,4.663,9.701,7.055,13.925c1.148,2.145,2.249,4.2,3.295,6.154c1.108,1.929,2.16,3.758,3.147,5.477
			c0.983,1.728,1.937,3.325,2.756,4.853c0.864,1.494,1.715,2.831,2.455,4.061c1.513,2.435,2.62,4.423,3.415,5.75
			c0.769,1.351,1.18,2.07,1.18,2.07l-0.543,0.441c0,0-2.032-2.576-5.589-7.086c-0.882-1.133-1.89-2.364-2.93-3.748
			c-1.009-1.406-2.1-2.929-3.266-4.555s-2.407-3.356-3.715-5.181c-1.238-1.873-2.494-3.873-3.83-5.943
			c-2.757-4.088-5.306-8.785-8.135-13.674c-2.589-5.018-5.384-10.286-7.77-15.977c-0.609-1.415-1.288-2.815-1.853-4.275
			c-0.556-1.464-1.116-2.938-1.68-4.422c-0.554-1.486-1.151-2.969-1.68-4.483c-0.487-1.529-0.977-3.066-1.468-4.609
			c-0.474-1.548-1.025-3.081-1.44-4.658c-0.408-1.579-0.818-3.163-1.228-4.75c-0.899-3.157-1.446-6.408-2.11-9.633
			c-0.354-1.609-0.565-3.243-0.785-4.874c-0.225-1.629-0.449-3.257-0.672-4.882c-0.167-1.631-0.277-3.266-0.417-4.892
			c-0.124-1.627-0.304-3.246-0.309-4.869c-0.044-1.621-0.087-3.234-0.13-4.84c-0.069-1.605,0.054-3.204,0.071-4.792
			c0.016-3.179,0.321-6.306,0.561-9.383c0.666-6.134,1.555-12.05,2.928-17.542c0.159-0.689,0.316-1.374,0.473-2.054
			c0.186-0.672,0.37-1.339,0.553-2.002c0.374-1.322,0.72-2.631,1.101-3.906c0.834-2.528,1.58-4.99,2.485-7.289
			c0.826-2.328,1.769-4.499,2.64-6.573c0.95-2.039,1.804-3.997,2.745-5.769c1.787-3.591,3.578-6.6,5.096-9.045
			c1.518-2.447,2.852-4.281,3.76-5.529c0.922-1.238,1.461-1.873,1.461-1.873L397.912,277.587z"/>
	</g>
	<g>
		<path fill="#B49D86" d="M430.835,480.257c0,0-0.222-1.311-0.639-3.767c-0.208-1.229-0.465-2.743-0.767-4.523
			c-0.297-1.784-0.671-3.82-0.946-6.136c-0.587-4.618-1.44-10.243-1.965-16.715c-0.154-1.619-0.313-3.289-0.477-5.01
			c-0.152-1.721-0.254-3.495-0.389-5.316c-0.261-3.644-0.464-7.479-0.561-11.489c-0.356-8.02-0.293-16.739,0.132-25.967
			c0.504-9.224,1.294-18.98,2.958-29c0.454-2.5,0.911-5.022,1.372-7.562c0.483-2.538,1.09-5.076,1.638-7.641
			c0.546-2.566,1.289-5.112,1.933-7.693c0.33-1.288,0.733-2.562,1.141-3.838c0.403-1.278,0.808-2.558,1.212-3.841
			c0.806-2.567,1.803-5.094,2.703-7.656c0.97-2.541,2.042-5.058,3.08-7.591c2.265-4.996,4.632-9.991,7.448-14.77
			c2.753-4.809,5.967-9.365,9.291-13.797c3.432-4.361,7.075-8.541,11.007-12.392c7.838-7.739,16.866-13.957,26.099-18.799
			c4.648-2.369,9.327-4.475,14.05-6.112c4.725-1.625,9.418-2.943,14.023-3.999c4.616-1.009,9.132-1.795,13.523-2.29
			c4.394-0.476,8.644-0.717,12.715-0.833c4.073-0.079,7.967-0.037,11.658,0.174c3.69,0.245,7.174,0.563,10.431,0.964
			c6.517,0.783,12.116,1.922,16.676,3.003c4.569,1.046,8.074,2.193,10.456,2.959c2.377,0.785,3.626,1.28,3.626,1.28l-0.202,0.67
			c0,0-1.255-0.378-3.665-0.95c-2.408-0.57-5.959-1.342-10.524-2.078c-4.562-0.748-10.14-1.442-16.565-1.861
			c-3.213-0.206-6.638-0.315-10.248-0.343c-3.61,0.011-7.406,0.111-11.357,0.381c-3.949,0.296-8.054,0.721-12.271,1.375
			c-4.213,0.677-8.542,1.541-12.933,2.668c-4.382,1.161-8.822,2.572-13.268,4.267c-4.43,1.734-8.843,3.781-13.19,6.125
			c-4.343,2.356-8.555,5.107-12.649,8.113c-4.096,3.011-7.943,6.44-11.65,10.059c-3.674,3.659-7.078,7.633-10.29,11.78
			c-3.107,4.224-6.119,8.557-8.697,13.155c-2.701,4.525-5.01,9.272-7.218,14.036c-1.013,2.423-2.063,4.827-3.017,7.26
			c-0.885,2.46-1.867,4.878-2.665,7.351c-3.331,9.844-5.78,19.804-7.614,29.539c-1.782,9.748-2.922,19.27-3.731,28.32
			c-0.308,4.533-0.701,8.938-0.829,13.214c-0.091,2.137-0.181,4.236-0.269,6.298c-0.032,2.063-0.064,4.089-0.095,6.072
			c-0.019,1.983-0.09,3.926-0.063,5.824c0.02,1.898,0.039,3.753,0.058,5.562c0.026,1.808,0.021,3.57,0.07,5.282
			c0.06,1.712,0.118,3.375,0.175,4.985c0.166,6.449,0.58,12.055,0.834,16.677c0.296,4.621,0.649,8.248,0.832,10.723
			c0.202,2.475,0.309,3.794,0.309,3.794L430.835,480.257z"/>
	</g>
	<path fill="#6E936A" stroke="#2A5426" stroke-width="6" stroke-miterlimit="10" d="M595.561,288.234"/>
	<g>
		<path fill="#B49D86" d="M603.551,289.5c-0.533,0.147-1.2,0.48-1.792,0.759c-0.609,0.292-1.212,0.606-1.813,0.918l-3.585,1.918
			c-2.377,1.297-4.715,2.661-7.056,3.997c-2.337,1.345-4.622,2.779-6.915,4.177c-2.294,1.396-4.559,2.835-6.792,4.314
			c-2.223,1.497-4.452,2.968-6.65,4.478c-2.196,1.514-4.358,3.069-6.485,4.665c-2.113,1.614-4.253,3.177-6.33,4.821
			c-2.079,1.638-4.129,3.307-6.121,5.036c-0.995,0.865-1.989,1.73-2.958,2.619l-2.942,2.624c-1.935,1.775-3.822,3.594-5.659,5.457
			c-1.827,1.871-3.598,3.789-5.312,5.749c-1.728,1.947-3.423,3.917-5.04,5.946c-1.616,2.03-3.145,4.12-4.613,6.248
			c-1.463,2.133-2.802,4.336-4.167,6.525c-1.333,2.208-2.559,4.476-3.712,6.78c-1.143,2.311-2.142,4.683-3.122,7.069l-9.755,23.75
			l0.899-25.18c0.064-1.799,0.085-3.596,0.188-5.392c0.104-1.796,0.188-3.59,0.357-5.382c0.132-1.792,0.325-3.581,0.53-5.366
			c0.192-1.787,0.465-3.566,0.712-5.344c0.295-1.774,0.556-3.55,0.943-5.308c0.339-1.764,0.757-3.513,1.161-5.262
			c0.444-1.741,0.865-3.484,1.375-5.206c0.475-1.729,1.025-3.439,1.564-5.147c0.576-1.699,1.143-3.398,1.809-5.063
			c0.652-1.668,1.326-3.328,2.058-4.962c0.713-1.64,1.477-3.259,2.276-4.857c0.796-1.599,1.616-3.187,2.513-4.732
			c0.884-1.551,1.83-3.067,2.798-4.563c0.981-1.49,1.99-2.958,3.066-4.379c1.07-1.424,2.217-2.791,3.423-4.104
			c1.212-1.306,2.465-2.579,3.925-3.645l0.382,0.463c-1.29,1.113-2.418,2.458-3.488,3.823c-1.071,1.37-2.065,2.802-3.011,4.265
			c-0.954,1.458-1.84,2.96-2.697,4.478c-0.844,1.525-1.665,3.064-2.422,4.636c-0.773,1.563-1.496,3.151-2.179,4.756
			c-0.689,1.602-1.344,3.22-1.947,4.856c-0.622,1.63-1.185,3.282-1.727,4.939c-0.546,1.657-1.034,3.332-1.518,5.008
			c-0.449,1.686-0.909,3.369-1.295,5.071c-0.421,1.693-0.753,3.407-1.108,5.114c-0.315,1.716-0.645,3.43-0.896,5.156
			c-0.291,1.721-0.491,3.455-0.722,5.184c-0.183,1.735-0.392,3.468-0.521,5.208c-0.141,1.739-0.272,3.479-0.343,5.223
			c-0.108,1.742-0.131,3.487-0.175,5.231c-0.042,1.744-0.004,3.49-0.01,5.234l-0.91-0.147c3.549-10.343,9.031-19.961,15.702-28.595
			c6.658-8.667,14.595-16.273,23.076-23.101c8.508-6.815,17.636-12.824,27.146-18.12c4.758-2.645,9.614-5.112,14.563-7.376
			c2.475-1.134,4.974-2.213,7.5-3.228c1.263-0.507,2.535-0.995,3.818-1.456c0.643-0.228,1.286-0.454,1.938-0.662
			c0.674-0.195,1.257-0.436,2.06-0.518L603.551,289.5z"/>
	</g>
	<g>
		<path fill="#B49D86" d="M600.176,279.604c-3.123-0.417-6.229-0.794-9.347-0.887c-1.554-0.104-3.115-0.054-4.663-0.099
			c-1.553,0.054-3.099,0.042-4.641,0.176c-3.084,0.167-6.141,0.59-9.156,1.12c-3.02,0.509-5.988,1.26-8.901,2.135
			c-2.917,0.866-5.763,1.941-8.539,3.149c-2.763,1.229-5.619,2.235-8.332,3.599c-5.44,2.678-10.6,5.949-15.476,9.614
			c-9.744,7.365-18.302,16.33-25.802,26.09c-3.751,4.885-7.237,9.984-10.463,15.241c-1.616,2.626-3.159,5.297-4.633,8.001
			c-1.456,2.688-2.896,5.485-4.106,8.168l-7.318,16.216l1.578-17.66c0.094-1.047,0.195-2.021,0.311-3.02l0.364-2.968
			c0.258-1.974,0.551-3.941,0.861-5.904c0.32-1.962,0.66-3.92,1.03-5.874c0.175-0.978,0.387-1.95,0.578-2.926
			c0.19-0.976,0.4-1.948,0.619-2.919c0.221-0.97,0.416-1.945,0.658-2.912l0.704-2.903c0.237-0.967,0.508-1.927,0.761-2.892
			c0.254-0.964,0.512-1.927,0.803-2.882l0.845-2.873l0.925-2.854c0.588-1.91,1.331-3.779,1.992-5.67l4.064,3.787
			c-3.186,1.483-6.129,3.682-8.791,6.251c-2.67,2.567-5.072,5.498-7.28,8.594c-4.408,6.214-8.062,13.07-11.312,20.113
			c-3.244,7.056-6.077,14.335-8.652,21.714c-2.572,7.382-4.884,14.87-7.014,22.415c-2.128,7.546-4.073,15.152-5.877,22.795
			c-0.901,3.821-1.767,7.652-2.601,11.491c-0.417,1.919-0.833,3.839-1.202,5.769c-0.351,1.934-0.717,3.863-1.231,5.765
			c-0.993,3.809-1.957,7.627-2.892,11.455l-2.744,11.505c-0.905,3.84-1.777,7.689-2.627,11.546
			c-0.871,3.854-1.72,7.713-2.506,11.589c0.231-3.949,0.527-7.896,0.847-11.843c0.344-3.943,0.731-7.884,1.142-11.824
			c0.4-3.941,0.885-7.872,1.375-11.805c0.495-3.932,1.02-7.862,1.576-11.79c0.259-1.968,0.682-3.904,1.137-5.832l1.261-5.808
			c0.841-3.872,1.715-7.737,2.625-11.596c1.821-7.717,3.787-15.403,5.942-23.046c2.157-7.642,4.503-15.24,7.123-22.761
			c2.625-7.519,5.519-14.964,8.867-22.249c3.36-7.274,7.148-14.417,11.875-21.085c2.372-3.324,4.986-6.529,8.006-9.436
			c3.01-2.9,6.453-5.519,10.433-7.374l6.424-2.994l-2.36,6.781c-0.63,1.81-1.339,3.586-1.904,5.424l-0.888,2.74l-0.814,2.768
			c-0.28,0.919-0.529,1.85-0.774,2.782c-0.244,0.932-0.506,1.858-0.735,2.794l-0.682,2.812c-0.234,0.935-0.423,1.883-0.638,2.823
			c-0.212,0.941-0.416,1.885-0.6,2.833c-0.187,0.948-0.392,1.892-0.562,2.842c-0.36,1.898-0.69,3.802-1.001,5.709
			c-0.301,1.908-0.586,3.819-0.836,5.732l-0.352,2.868c-0.11,0.948-0.21,1.924-0.292,2.829l-5.74-1.444
			c1.369-3.032,2.809-5.809,4.334-8.634c1.527-2.8,3.122-5.559,4.791-8.272c3.333-5.429,6.932-10.695,10.817-15.755
			c7.77-10.106,16.673-19.457,26.95-27.227c5.144-3.866,10.617-7.34,16.429-10.202c2.895-1.439,5.81-2.909,8.937-3.825
			c3.108-0.949,6.26-1.741,9.448-2.305c3.184-0.571,6.387-0.999,9.601-1.171c3.21-0.185,6.422-0.182,9.607,0.046
			c1.594,0.068,3.178,0.284,4.757,0.434c1.574,0.238,3.149,0.42,4.7,0.756C594.109,277.908,597.164,278.743,600.176,279.604z"/>
	</g>
	<polygon fill="#6E936A" points="638.088,191.324 604.07,253.564 600.197,316.897 648.101,337.809 648.472,202.297 	"/>
	<path fill="#6E936A" stroke="#2A5426" stroke-width="6" stroke-miterlimit="10" d="M633.091,194.77
		c26.589-25.378,79.502,51.931,61.159,138.445"/>
	<g>
		<path fill="#2A5426" d="M599.011,302.16c0,0-0.132-0.449-0.321-1.297c-0.178-0.848-0.479-2.093-0.729-3.686
			c-0.255-1.592-0.589-3.533-0.794-5.764c-0.11-1.118-0.228-2.307-0.351-3.561c-0.116-1.256-0.146-2.574-0.223-3.954
			c-0.043-1.377-0.116-2.818-0.14-4.308c-0.028-1.49,0.017-3.026,0.059-4.608c0.071-3.166,0.226-6.51,0.563-9.955
			c0.361-3.443,0.789-7.004,1.462-10.59c0.595-3.6,1.462-7.215,2.38-10.82c0.475-1.798,1.043-3.577,1.56-5.357
			c0.56-1.773,1.189-3.517,1.806-5.248c1.29-3.448,2.708-6.792,4.285-9.94c1.537-3.164,3.279-6.104,5.031-8.818
			c1.694-2.747,3.582-5.174,5.366-7.349c0.925-1.069,1.775-2.111,2.641-3.054c0.915-0.901,1.782-1.756,2.597-2.56
			c1.593-1.621,3.233-2.802,4.459-3.851c1.293-0.995,2.4-1.666,3.105-2.164c0.728-0.471,1.116-0.722,1.116-0.722l0.414,0.434
			c0,0-0.312,0.324-0.895,0.932c-0.579,0.612-1.45,1.487-2.516,2.64c-0.507,0.6-1.069,1.264-1.681,1.987s-1.287,1.492-1.922,2.384
			c-0.656,0.875-1.353,1.807-2.088,2.789c-0.686,1.018-1.406,2.087-2.158,3.204c-1.453,2.265-2.968,4.761-4.398,7.496
			c-0.76,1.343-1.421,2.786-2.133,4.241c-0.734,1.445-1.358,2.981-2.039,4.521c-1.332,3.093-2.543,6.359-3.694,9.704
			c-0.556,1.679-1.086,3.382-1.617,5.091c-0.478,1.726-1.007,3.444-1.445,5.188c-0.449,1.74-0.931,3.473-1.32,5.222
			c-0.205,0.872-0.41,1.742-0.614,2.609c-0.184,0.872-0.367,1.742-0.549,2.608c-0.737,3.464-1.326,6.901-1.866,10.231
			c-1.028,6.67-1.685,12.94-2.089,18.326c-0.386,5.387-0.591,9.886-0.648,13.036c-0.061,3.152-0.016,4.947-0.016,4.947
			L599.011,302.16z"/>
	</g>
	<path fill="#6E936A" stroke="#2A5426" stroke-width="5" stroke-miterlimit="10" d="M419.537,274.507
		c0,0-23.464-103.877-18.827-161.508c0,0,1.242-28.215,11.567-2.472c10.325,25.743,36.201,108.757,39.545,135.635"/>
	
		<line fill="#2A5426" stroke="#2A5426" stroke-width="3" stroke-miterlimit="10" x1="399.314" y1="142.452" x2="418.393" y2="132.25"/>
	
		<line fill="#2A5426" stroke="#2A5426" stroke-width="3" stroke-miterlimit="10" x1="403.333" y1="168.524" x2="428.204" y2="156.904"/>
	
		<line fill="#2A5426" stroke="#2A5426" stroke-width="3" stroke-miterlimit="10" x1="407.281" y1="201.172" x2="436.736" y2="187.144"/>
	
		<line fill="#2A5426" stroke="#2A5426" stroke-width="3" stroke-miterlimit="10" x1="411.618" y1="229.417" x2="442.911" y2="213.512"/>
	
		<line fill="#2A5426" stroke="#2A5426" stroke-width="3" stroke-miterlimit="10" x1="421.502" y1="257.514" x2="449.189" y2="241.097"/>
	<path fill="#42332A" d="M504.645,224.814c0,0-65.52-11.279-83.209-0.733c-4.064,1.187,32.059,13.694,32.059,13.694l-59.563,32.114
		l12.585,6.562l28.252,3.326L504.645,224.814z"/>
	<g>
		<path fill="#42332A" d="M494.532,223.59c0,0-50.875-9.91-83.376,3.986c16.998,0.049,42.338,10.199,42.338,10.199l-61.25,31.91"/>
		<path fill="#B49D86" d="M494.532,223.59c-1.762-0.153-3.517-0.298-5.275-0.418c-1.761-0.1-3.51-0.253-5.269-0.329
			c-1.753-0.113-3.511-0.16-5.263-0.244c-1.75-0.097-3.504-0.135-5.256-0.174l-2.625-0.059l-2.625-0.01
			c-1.748-0.02-3.494-0.055-5.239-0.004c-1.745,0.042-3.489,0.034-5.229,0.116c-1.74,0.095-3.477,0.165-5.213,0.224
			c-1.735,0.079-3.462,0.246-5.191,0.364c-0.863,0.071-1.729,0.115-2.589,0.207l-2.574,0.308c-1.71,0.229-3.438,0.355-5.131,0.656
			l-5.087,0.822c-1.684,0.315-3.339,0.731-5.011,1.075c-0.83,0.193-1.676,0.335-2.491,0.568l-2.438,0.72l-2.436,0.714
			c-0.405,0.12-0.817,0.224-1.216,0.357l-1.174,0.452l-4.695,1.795l-1.339-6.589l2.922,0.081c0.978,0.024,1.917,0.158,2.877,0.233
			c0.961,0.074,1.905,0.197,2.841,0.338c0.936,0.143,1.889,0.241,2.811,0.423l2.782,0.501c0.922,0.178,1.833,0.395,2.749,0.592
			c0.918,0.192,1.824,0.418,2.729,0.646c0.903,0.231,1.816,0.436,2.71,0.691c1.798,0.484,3.591,0.976,5.363,1.528
			c0.892,0.261,1.77,0.557,2.654,0.836c0.884,0.278,1.763,0.572,2.64,0.87c1.756,0.591,3.505,1.195,5.239,1.85l2.599,0.99
			l2.615,1.048l6.722,2.694l-6.43,3.182l-7.739,3.83c-2.58,1.277-5.168,2.536-7.769,3.772l-7.789,3.734
			c-2.59,1.256-5.198,2.478-7.816,3.682l-7.84,3.636l-7.886,3.547c-2.623,1.193-5.277,2.327-7.923,3.477
			c-2.642,1.156-5.31,2.265-7.983,3.361c2.431-1.563,4.868-3.113,7.33-4.616c2.458-1.509,4.908-3.034,7.39-4.5l7.426-4.431
			l7.472-4.342c2.486-1.456,4.982-2.893,7.496-4.295l7.524-4.243c2.503-1.423,5.019-2.823,7.543-4.205l7.573-4.148l0.292,5.875
			l-2.494-0.902l-2.543-0.871c-1.7-0.569-3.401-1.143-5.114-1.673c-0.854-0.272-1.71-0.539-2.57-0.79
			c-0.859-0.252-1.715-0.522-2.578-0.756c-1.722-0.49-3.441-0.974-5.169-1.418c-0.861-0.24-1.729-0.427-2.593-0.642
			c-0.865-0.212-1.729-0.421-2.597-0.596l-2.598-0.552l-2.597-0.486c-0.866-0.179-1.729-0.268-2.594-0.407
			c-0.865-0.138-1.728-0.256-2.585-0.326c-0.856-0.071-1.725-0.204-2.57-0.228l-2.542-0.124l-17.269-0.843l15.929-5.746l5.205-1.877
			l1.301-0.466c0.438-0.137,0.882-0.241,1.323-0.363l2.653-0.689l2.652-0.684c0.885-0.219,1.783-0.343,2.673-0.519
			c1.785-0.315,3.565-0.684,5.355-0.925l5.374-0.613c0.894-0.117,1.79-0.188,2.688-0.222l2.689-0.142l2.686-0.141
			c0.895-0.036,1.79-0.024,2.684-0.038c1.788-0.004,3.576-0.057,5.36-0.021c1.783,0.046,3.565,0.104,5.346,0.186
			c1.779,0.081,3.553,0.25,5.327,0.371c1.774,0.111,3.542,0.309,5.308,0.491c1.767,0.167,3.527,0.405,5.283,0.663
			c1.757,0.246,3.511,0.49,5.258,0.793c1.75,0.27,3.491,0.604,5.227,0.954C487.673,221.849,491.128,222.633,494.532,223.59z"/>
	</g>
	<g>
		<path fill="#2A5426" d="M427.619,541.811c0,0-1.054-0.04-2.47-0.648c-0.718-0.28-1.501-0.726-2.298-1.275
			c-0.373-0.304-0.803-0.573-1.162-0.937c-0.379-0.342-0.746-0.71-1.079-1.11c-0.346-0.388-0.652-0.81-0.932-1.24
			c-0.309-0.409-0.505-0.883-0.737-1.309c-0.247-0.419-0.373-0.883-0.527-1.298c-0.167-0.41-0.254-0.825-0.322-1.207
			c-0.179-0.75-0.19-1.399-0.185-1.848c0.001-0.448,0.023-0.701,0.023-0.701s0.145,0.222,0.363,0.604
			c0.106,0.191,0.239,0.42,0.368,0.686c0.136,0.263,0.338,0.539,0.506,0.853c0.177,0.313,0.371,0.643,0.599,0.979
			c0.227,0.336,0.436,0.699,0.698,1.049c0.253,0.354,0.506,0.72,0.796,1.07c0.281,0.355,0.552,0.726,0.868,1.063
			c0.584,0.711,1.237,1.366,1.846,1.998c0.33,0.285,0.616,0.608,0.921,0.876c0.304,0.276,0.591,0.537,0.856,0.778
			c0.553,0.482,1.015,0.885,1.337,1.166C427.426,541.646,427.619,541.811,427.619,541.811z"/>
	</g>
	<g>
		<path fill="#2A5426" d="M452.062,541.969c0,0,0.227-0.059,0.561-0.213c0.34-0.151,0.801-0.373,1.305-0.707
			c0.258-0.145,0.516-0.346,0.789-0.549c0.281-0.182,0.554-0.412,0.836-0.652c0.288-0.227,0.581-0.463,0.858-0.741
			c0.266-0.267,0.622-0.525,0.842-0.775c0.298-0.3,0.594-0.603,0.9-0.886l0.113-0.107l0.057-0.054l0.028-0.026l0.014-0.014
			l0.007-0.006l0.003-0.004c-0.027,0.031,0.066-0.074-0.061,0.069l0.208-0.228c0.139-0.15,0.277-0.299,0.412-0.444
			c0.273-0.289,0.548-0.561,0.813-0.814c0.28-0.249,0.485-0.495,0.709-0.715c0.858-0.892,1.612-1.434,1.612-1.434
			c-0.001,0-0.167,0.878-0.688,2.116c-0.131,0.305-0.259,0.665-0.454,0.969c-0.185,0.316-0.385,0.646-0.603,0.98
			c-0.11,0.165-0.223,0.334-0.336,0.504l-0.173,0.255l-0.271,0.306c-0.273,0.314-0.566,0.619-0.857,0.927
			c-0.357,0.369-0.699,0.6-1.056,0.886c-0.339,0.285-0.721,0.513-1.104,0.712c-0.37,0.214-0.743,0.393-1.126,0.512
			c-0.369,0.141-0.729,0.24-1.078,0.287c-0.335,0.076-0.654,0.097-0.939,0.087c-0.276,0.018-0.525-0.026-0.722-0.06
			c-0.194-0.019-0.354-0.094-0.451-0.12C452.111,541.995,452.062,541.969,452.062,541.969z"/>
	</g>
	<g>
		<path fill="#2A5426" d="M469.296,524.942c0,0-0.054-0.029-0.157-0.086c-0.101-0.061-0.261-0.14-0.468-0.229
			c-0.201-0.09-0.448-0.201-0.738-0.331c-0.301-0.108-0.646-0.231-1.033-0.37c-0.74-0.313-1.726-0.521-2.797-0.817
			c-0.266-0.073-0.54-0.149-0.823-0.228c-0.294-0.053-0.598-0.106-0.908-0.162c-0.611-0.118-1.253-0.242-1.924-0.371
			c-0.651-0.158-1.373-0.222-2.106-0.307c-0.727-0.095-1.478-0.193-2.25-0.294c-0.758-0.128-1.567-0.173-2.39-0.217
			c-0.822-0.043-1.654-0.122-2.5-0.188c-1.675-0.207-3.467-0.135-5.253-0.224c-0.896-0.038-1.799-0.054-2.703-0.112l-0.339-0.019
			l-0.084-0.005l-0.042-0.003l-0.021-0.001c-0.03-0.001,0.185,0.002,0.083,0.001l-0.176,0.003l-0.705,0.014l-1.411,0.026
			c-1.882,0.002-3.765,0.015-5.618-0.035l-0.347-0.007l-0.087-0.002h-0.021c0.404-0.018,0.1-0.005,0.184-0.008l-0.043,0.002
			l-0.173,0.009l-0.69,0.036c-0.459,0.015-0.916,0.03-1.371,0.045c-0.908,0.029-1.805,0.066-2.69,0.072
			c-1.767,0.035-3.479,0.031-5.103,0.009c-0.821-0.041-1.588,0.012-2.337,0.033c-0.751,0.017-1.478,0.032-2.174,0.048
			c-2.795,0.038-5.164-0.04-6.841-0.145c-0.834-0.032-1.502-0.11-1.955-0.141c-0.456-0.047-0.699-0.071-0.699-0.071
			s0.223-0.094,0.64-0.269c0.421-0.159,1.033-0.427,1.828-0.698c1.582-0.585,3.869-1.35,6.66-2.135
			c1.392-0.364,2.924-0.855,4.523-1.127c1.6-0.282,3.29-0.562,5.04-0.81c0.875-0.137,1.766-0.244,2.667-0.361
			c0.451-0.058,0.904-0.116,1.36-0.175l0.687-0.075l0.172-0.019l0.043-0.005l0.249-0.013l0.086-0.003l0.347-0.013
			c1.852-0.085,3.734-0.108,5.616-0.143h1.412h0.705h0.176l0.15,0.004l0.045,0.003l0.091,0.007l0.362,0.026
			c0.967,0.063,1.928,0.171,2.881,0.254c0.953,0.082,1.896,0.186,2.827,0.293c0.93,0.072,1.85,0.273,2.749,0.472
			c0.899,0.195,1.784,0.372,2.641,0.581c0.857,0.204,1.699,0.368,2.5,0.685c0.799,0.282,1.577,0.557,2.329,0.822
			c0.744,0.283,1.467,0.512,2.131,0.879c0.662,0.338,1.296,0.661,1.899,0.969c0.296,0.157,0.585,0.311,0.866,0.46
			c0.269,0.181,0.53,0.356,0.783,0.526c1.006,0.679,1.849,1.288,2.473,1.909c0.655,0.547,1.092,1.102,1.378,1.457
			C469.194,524.717,469.285,524.951,469.296,524.942z"/>
	</g>
	<g>
		<path fill="#2A5426" d="M473.743,577.551c0,0.001-0.303,0.226-0.893,0.588c-0.593,0.349-1.454,0.91-2.598,1.477
			c-1.139,0.575-2.528,1.307-4.172,1.951c-0.818,0.349-1.695,0.69-2.624,1.063c-0.93,0.36-1.921,0.677-2.956,1.029
			c-4.15,1.326-9.121,2.502-14.562,3.127c-1.361,0.16-2.747,0.295-4.158,0.367c-0.706,0.043-1.416,0.086-2.129,0.13
			c-0.716,0.008-1.436,0.016-2.158,0.023c-2.893,0.066-5.841-0.149-8.788-0.399c-1.47-0.209-2.94-0.374-4.401-0.623
			c-1.462-0.25-2.908-0.528-4.337-0.886c-0.713-0.173-1.424-0.346-2.131-0.518c-0.703-0.185-1.396-0.422-2.086-0.629
			c-0.688-0.215-1.373-0.429-2.052-0.641c-0.674-0.239-1.333-0.509-1.99-0.759c-1.314-0.491-2.593-1.026-3.812-1.629
			c-1.229-0.563-2.412-1.172-3.53-1.825c-1.129-0.621-2.202-1.275-3.204-1.97c-1.01-0.674-1.977-1.325-2.847-2.053
			c-0.867-0.729-1.743-1.326-2.47-2.065c-0.731-0.713-1.425-1.389-2.077-2.023c-1.277-1.284-2.243-2.561-3.055-3.55
			c-0.774-1.043-1.296-1.935-1.679-2.502c-0.371-0.582-0.549-0.906-0.549-0.906l0.469-0.52c0,0,1.075,0.875,2.955,2.405
			c0.99,0.699,2.173,1.577,3.58,2.505c1.438,0.883,3.042,1.903,4.885,2.859c0.458,0.244,0.916,0.509,1.398,0.75
			c0.488,0.229,0.986,0.464,1.492,0.702c0.506,0.237,1.021,0.479,1.543,0.726c0.526,0.237,1.077,0.441,1.625,0.669
			c1.1,0.45,2.23,0.913,3.419,1.296c1.177,0.416,2.384,0.828,3.638,1.167c0.623,0.182,1.25,0.364,1.883,0.548
			c0.641,0.154,1.286,0.311,1.935,0.468c1.293,0.336,2.621,0.594,3.959,0.852c2.675,0.526,5.424,0.885,8.177,1.192
			c2.757,0.274,5.521,0.506,8.251,0.582c2.729,0.118,5.419,0.08,8.021,0.02c2.602-0.088,5.115-0.231,7.493-0.446
			c2.38-0.192,4.622-0.471,6.688-0.739c4.129-0.568,7.558-1.152,9.939-1.645c2.386-0.489,3.722-0.842,3.722-0.842L473.743,577.551z"
			/>
	</g>
	<rect x="539.795" y="446.588" width="4.267" height="13.115"/>
	<polygon points="352.99,450.625 348.723,450.625 348.723,431.897 352.99,431.897 352.99,446 	"/>
	<circle fill="#FFFFFF" cx="380.748" cy="464.274" r="6.636"/>
	<circle fill="#FFFFFF" cx="586.259" cy="481.192" r="8.513"/>
	<circle fill="#FFFFFF" cx="339.307" cy="454.15" r="11.958"/>
	<circle fill="#FFFFFF" cx="534.983" cy="473.16" r="15.522"/>
</g>
<g id="Layer_4">
	<path fill="#EAE8EB" stroke="#B6B4B7" stroke-width="7" stroke-miterlimit="10" d="M637.043,382.484
		c0,0,8.182,94.818,63.938,152.536c31.342,32.442,77.873,53.793,146.767,41.329c0,0,215.862-61.128,116.678-298.128"/>
	<polygon fill="#E6E7E8" points="660.125,248.977 873.887,228.095 963.474,286.579 964.937,341.811 865.478,439.646 634.14,371.14 	
		"/>
	<g>
		<path fill="#EAE8EB" d="M840.523,506.148c0,0,8.341-3.826,9.452-12.541"/>
		<path fill="#B6B4B7" d="M840.523,506.148c0,0,0.026-0.091,0.076-0.261c0.056-0.151,0.108-0.409,0.21-0.67
			c0.096-0.263,0.19-0.615,0.323-0.945c0.121-0.354,0.273-0.705,0.426-1.09c0.32-0.747,0.688-1.533,1.11-2.263
			c0.405-0.746,0.893-1.419,1.377-2.066c0.258-0.315,0.521-0.62,0.778-0.923c0.283-0.29,0.552-0.58,0.839-0.859
			c0.311-0.28,0.611-0.553,0.896-0.811c0.32-0.258,0.635-0.515,0.92-0.771c0.301-0.251,0.625-0.485,0.908-0.709
			c0.264-0.227,0.551-0.429,0.776-0.604c0.215-0.178,0.448-0.316,0.58-0.417c0.151-0.1,0.232-0.152,0.232-0.152
			s0.066,0.072,0.166,0.208c0.089,0.135,0.259,0.342,0.393,0.604c0.146,0.263,0.334,0.595,0.486,0.979
			c0.146,0.383,0.241,0.813,0.332,1.299c0.043,0.242,0.069,0.493,0.1,0.758c0.009,0.258-0.007,0.519-0.013,0.795
			c-0.031,0.547-0.087,1.133-0.26,1.692c-0.151,0.572-0.35,1.154-0.644,1.688c-0.269,0.556-0.608,1.073-0.992,1.554
			c-0.758,0.974-1.71,1.76-2.7,2.32c-0.507,0.266-1.007,0.499-1.514,0.656c-0.5,0.167-0.996,0.274-1.467,0.336
			c-0.938,0.13-1.778,0.058-2.382-0.068c-0.289-0.042-0.546-0.137-0.706-0.182C840.613,506.194,840.523,506.148,840.523,506.148z"/>
	</g>
	<g>
		<path fill="#EAE8EB" d="M813.878,508.884c0,0-2.616,0.578-6.516-2.141c-0.487-0.337-0.991-0.725-1.512-1.171
			c-1.153-0.988-2.39-2.262-3.685-3.895"/>
		<path fill="#B6B4B7" d="M813.878,508.884c0,0-0.045,0.072-0.129,0.209c-0.084,0.114-0.261,0.365-0.473,0.529
			c-0.215,0.185-0.511,0.44-0.848,0.594c-0.345,0.189-0.76,0.389-1.201,0.492c-0.226,0.065-0.46,0.104-0.712,0.157
			c-0.241,0.036-0.481,0.036-0.741,0.053c-0.518,0.018-1.06-0.01-1.571-0.13c-0.522-0.108-1.079-0.246-1.55-0.485
			c-0.244-0.113-0.489-0.231-0.728-0.364l-0.357-0.202l-0.175-0.106l-0.277-0.2c-0.352-0.274-0.686-0.572-0.994-0.892l-0.227-0.244
			l-0.054-0.063l-0.014-0.016l-0.007-0.008c0.056,0.047-0.491-0.422-0.261-0.226l-0.003-0.004l-0.024-0.034l-0.094-0.137
			c-0.12-0.186-0.237-0.371-0.343-0.564c-0.216-0.381-0.391-0.784-0.547-1.176c-0.148-0.376-0.278-0.85-0.366-1.275
			c-0.091-0.427-0.126-0.85-0.148-1.219c-0.039-0.355-0.014-0.707,0-0.981c0.003-0.267,0.068-0.521,0.088-0.673
			c0.028-0.156,0.043-0.24,0.043-0.24s0.088,0.001,0.253,0.002c0.157,0.007,0.423-0.016,0.682,0.014
			c0.269,0.02,0.605,0.027,0.922,0.083c0.334,0.042,0.7,0.084,1.048,0.163c0.352,0.078,0.679,0.17,1.107,0.304
			c0.398,0.137,0.809,0.292,1.199,0.488c0.197,0.097,0.389,0.204,0.579,0.315l0.141,0.087l0.035,0.022l0.005,0.002
			c0.232,0.199-0.312-0.267-0.254-0.218l0.01,0.004l0.019,0.01l0.074,0.036l0.293,0.158c0.386,0.218,0.758,0.467,1.112,0.739
			l0.064,0.053l0.032,0.026l0.009,0.007c0.03,0.022-0.254-0.187-0.132-0.097l0.003,0.002l0.014,0.009l0.109,0.07
			c0.073,0.046,0.14,0.102,0.209,0.152c0.14,0.102,0.271,0.218,0.399,0.337c0.255,0.261,0.498,0.461,0.728,0.722
			c0.228,0.272,0.447,0.536,0.656,0.785c0.22,0.288,0.428,0.561,0.62,0.812c0.404,0.569,0.808,1.07,1.155,1.472
			c0.179,0.185,0.307,0.374,0.432,0.482C813.813,508.827,813.878,508.884,813.878,508.884z"/>
	</g>
	<g>
		<path fill="#EAE8EB" d="M793.441,493.755c0,0,5.784-6.961,28.195-9.698c2.793-0.342,5.836-0.616,9.147-0.806
			c7.34-0.415,16.031-0.405,26.302,0.257"/>
		<path fill="#B6B4B7" d="M793.441,493.755c0.014,0.009,0.094-0.255,0.391-0.652c0.15-0.208,0.336-0.464,0.554-0.765
			c0.231-0.289,0.52-0.585,0.849-0.929c0.638-0.727,1.515-1.444,2.556-2.272c0.51-0.444,1.099-0.812,1.722-1.2
			c0.631-0.387,1.295-0.793,1.988-1.218c1.407-0.818,3.009-1.467,4.705-2.239c0.843-0.416,1.745-0.65,2.656-0.968
			c0.911-0.31,1.855-0.586,2.814-0.885c0.48-0.146,0.965-0.293,1.453-0.441c0.49-0.14,0.988-0.217,1.487-0.329
			c0.999-0.212,2.013-0.421,3.04-0.605c1.026-0.186,2.059-0.4,3.103-0.565l0.392-0.064l0.494-0.055l0.766-0.075l1.533-0.15
			c2.048-0.161,4.095-0.335,6.116-0.435l0.378-0.021l0.267-0.015h0.048l0.095,0.001l0.188,0.001l0.754,0.006
			c0.502,0.015,1.001,0.028,1.496,0.042c0.992,0.028,1.973,0.048,2.937,0.102c1.929,0.081,3.794,0.204,5.563,0.342
			c1.768,0.132,3.485,0.485,5.037,0.732c3.119,0.549,5.689,1.139,7.474,1.611c0.894,0.212,1.589,0.442,2.064,0.572
			c0.474,0.149,0.726,0.229,0.726,0.229s-0.261,0.061-0.75,0.173c-0.487,0.094-1.203,0.272-2.105,0.417
			c-1.808,0.339-4.37,0.736-7.41,1.056c-0.758,0.072-1.549,0.148-2.366,0.227c-0.816,0.074-1.654,0.11-2.54,0.253
			c-1.761,0.219-3.618,0.427-5.54,0.596c-0.961,0.098-1.938,0.162-2.929,0.235c-0.494,0.037-0.992,0.073-1.492,0.11l-0.753,0.04
			l-0.188,0.011l-0.095,0.005l-0.047,0.002c0.431-0.024,0.105-0.005,0.195-0.01l-0.023,0.003l-0.376,0.045
			c-2.008,0.256-4.053,0.441-6.098,0.641l-1.536,0.12l-0.767,0.06l-0.191,0.015l-0.096,0.008l-0.024,0.002
			c-0.032,0.003,0.194-0.021,0.088-0.009l-0.046,0.007l-0.367,0.054c-0.979,0.153-1.959,0.256-2.931,0.384
			c-1.933,0.278-3.895,0.357-5.701,0.724c-0.916,0.143-1.814,0.303-2.707,0.418c-0.888,0.128-1.775,0.225-2.592,0.42
			c-0.834,0.168-1.646,0.331-2.431,0.489c-0.787,0.157-1.582,0.257-2.281,0.473c-0.723,0.184-1.415,0.36-2.074,0.528
			c-0.336,0.08-0.662,0.158-0.98,0.234c-0.316,0.081-0.599,0.198-0.892,0.283c-1.146,0.389-2.226,0.653-3.017,1.028
			c-0.407,0.173-0.79,0.317-1.116,0.448c-0.313,0.153-0.577,0.284-0.792,0.39c-0.223,0.107-0.397,0.197-0.505,0.269
			C793.499,493.721,793.441,493.755,793.441,493.755z"/>
	</g>
	<g>
		<path fill="#EAE8EB" d="M794.33,552.507c0,0,62.239,9.277,88.302-28.536"/>
		<path fill="#B6B4B7" d="M794.38,552.16c0,0,0.389-0.069,1.117-0.199c0.724-0.102,1.791-0.339,3.125-0.52
			c1.338-0.213,2.954-0.506,4.788-0.762c1.822-0.29,3.878-0.617,6.121-0.975c2.208-0.354,4.601-0.737,7.131-1.142
			c2.514-0.387,5.137-0.873,7.834-1.332c1.342-0.252,2.705-0.509,4.085-0.769c1.367-0.279,2.751-0.561,4.146-0.846
			c0.693-0.147,1.39-0.296,2.088-0.444c0.689-0.179,1.386-0.331,2.083-0.483c1.403-0.282,2.772-0.683,4.159-1.021
			c1.387-0.333,2.748-0.734,4.116-1.103c1.331-0.455,2.713-0.77,4.024-1.227c2.636-0.878,5.23-1.749,7.673-2.747
			c0.615-0.243,1.227-0.485,1.831-0.725c0.589-0.267,1.173-0.529,1.761-0.779c0.587-0.254,1.167-0.506,1.74-0.755
			c0.552-0.283,1.101-0.56,1.654-0.817c0.554-0.264,1.099-0.523,1.637-0.779c0.519-0.285,1.022-0.576,1.538-0.841
			c1.03-0.532,2.023-1.064,2.936-1.636c1.89-1.074,3.571-2.167,5.096-3.156c1.463-1.043,2.772-1.973,3.878-2.742
			c1.009-0.847,1.902-1.463,2.478-1.918c0.589-0.443,0.926-0.672,0.926-0.671l0.576,0.396c0,0-0.898,1.239-2.472,3.407
			c-0.87,1.017-1.887,2.294-3.153,3.666c-0.655,0.666-1.352,1.376-2.086,2.124c-0.728,0.757-1.606,1.43-2.461,2.199
			c-0.85,0.779-1.812,1.494-2.804,2.238c-0.495,0.374-0.998,0.754-1.51,1.14c-0.534,0.354-1.075,0.712-1.625,1.075
			c-0.55,0.364-1.107,0.732-1.671,1.105c-0.585,0.34-1.177,0.683-1.775,1.03c-0.6,0.345-1.206,0.693-1.818,1.045
			c-0.629,0.319-1.265,0.642-1.905,0.967c-1.27,0.678-2.608,1.26-3.963,1.854c-1.339,0.631-2.756,1.117-4.156,1.676
			c-1.407,0.544-2.862,0.983-4.304,1.483c-1.465,0.424-2.928,0.88-4.41,1.263c-2.972,0.732-5.963,1.39-8.937,1.856
			c-2.967,0.512-5.909,0.854-8.758,1.144c-2.853,0.247-5.614,0.446-8.236,0.521c-2.622,0.104-5.103,0.099-7.391,0.079
			c-4.578-0.069-8.382-0.405-11.037-0.666c-2.652-0.278-4.168-0.522-4.168-0.522L794.38,552.16z"/>
	</g>
	<path fill="#EAE8EB" d="M663.561,261.543l85.656,3.023l102.561,107.542l-24.603,31.207c0,0-48.274-10.769-175.019,3.729
		c-2.744-6.502-7.946-142.479-7.946-142.479L663.561,261.543z"/>
	<g>
		<g>
			<path d="M956.437,361.61c-0.001,0,1.199-0.068,2.954-0.09c1.764-0.026,4.112,0.005,6.454,0.164
				c2.341,0.155,4.674,0.459,6.384,0.865c0.43,0.082,0.814,0.217,1.158,0.305c0.344,0.087,0.637,0.189,0.875,0.284
				c0.477,0.177,0.748,0.278,0.748,0.278s-0.284-0.056-0.781-0.153c-0.246-0.054-0.547-0.107-0.898-0.137
				c-0.351-0.031-0.737-0.102-1.17-0.112c-1.719-0.123-4.017-0.049-6.298,0.171c-2.281,0.215-4.549,0.555-6.237,0.856
				c-1.698,0.3-2.789,0.543-2.79,0.543L956.437,361.61z"/>
		</g>
		<g>
			<path d="M961.026,375.24c0,0,0.252,0.011,0.692,0.031c0.445,0.025,1.08,0.061,1.843,0.104c1.517,0.092,3.534,0.256,5.543,0.491
				c1.004,0.093,2.009,0.274,2.944,0.4c0.936,0.135,1.805,0.348,2.544,0.485c0.741,0.147,1.342,0.381,1.763,0.491
				c0.419,0.126,0.658,0.198,0.658,0.198s-0.25-0.026-0.688-0.072c-0.439-0.03-1.047-0.146-1.795-0.152
				c-0.752,0.003-1.613-0.044-2.547-0.003c-0.935,0.051-1.92,0.057-2.914,0.151c-1.981,0.143-3.958,0.353-5.435,0.541
				c-0.733,0.096-1.345,0.177-1.773,0.232c-0.432,0.063-0.678,0.098-0.678,0.098L961.026,375.24z"/>
		</g>
		<path fill="#FFFFFF" d="M800.112,410.284c5.102,53.868-20.023,100.308-56.117,103.725c-36.095,3.417-65.555-38.01-71.898-91.819
			c-6.335-53.738,17.334-99.838,53.428-103.255C761.619,315.516,795.013,356.415,800.112,410.284z"/>
		<g>
			<path fill="#FFFFFF" d="M965.272,389.153c-7.589-53.332-40.862-92.706-74.321-87.945c-18.525,2.636-33.219,18.255-41.359,40.721
				c7.919-5.217,16.834-8.164,26.271-8.164c27.291,0,50.257,24.534,57.132,57.908c1.367,6.639,2.112,13.62,2.112,20.836
				c0,2.006-0.075,3.987-0.186,5.955c-0.029,0.505-0.052,1.012-0.087,1.514c-0.792,11.187-3.348,21.686-7.289,31.016
				c-7.756,18.361-20.886,31.166-36.557,36.655c8.764,4.902,18.097,8.021,27.444,6.691
				C951.89,489.578,972.861,442.485,965.272,389.153z"/>
			<path fill="#FFFFFF" d="M965.272,389.153c-7.589-53.332-40.862-92.706-74.321-87.945c-18.525,2.636-33.219,18.255-41.359,40.721
				c7.919-5.217,16.834-8.164,26.271-8.164c27.291,0,50.257,24.534,57.132,57.908c1.367,6.639,2.112,13.62,2.112,20.836
				c0,2.006-0.075,3.987-0.186,5.955c-0.029,0.505-0.052,1.012-0.087,1.514c-0.792,11.187-3.348,21.686-7.289,31.016
				c-7.756,18.361-20.886,31.166-36.557,36.655c8.764,4.902,18.097,8.021,27.444,6.691
				C951.89,489.578,972.861,442.485,965.272,389.153z"/>
			<path fill="#FFFFFF" d="M965.272,389.153c-7.589-53.332-40.862-92.706-74.321-87.945c-18.525,2.636-33.219,18.255-41.359,40.721
				c7.919-5.217,16.834-8.164,26.271-8.164c27.291,0,50.257,24.534,57.132,57.908c1.367,6.639,2.112,13.62,2.112,20.836
				c0,2.006-0.075,3.987-0.186,5.955c-0.029,0.505-0.052,1.012-0.087,1.514c-0.792,11.187-3.348,21.686-7.289,31.016
				c-7.756,18.361-20.886,31.166-36.557,36.655c8.764,4.902,18.097,8.021,27.444,6.691
				C951.89,489.578,972.861,442.485,965.272,389.153z"/>
		</g>
		<path fill="#2929FF" d="M752.297,464.769l-18.038-5.66c-6.481,17.919-20.267,30.29-36.227,30.29c-0.422,0-0.84-0.025-1.259-0.042
			c3.825,5.314,7.963,10.038,12.334,14.079C727.758,500.573,743.654,485.695,752.297,464.769z"/>
		<path fill="#2929FF" d="M698.032,382.609c17.594,0,32.535,15.038,37.972,35.966l22.205-4.553
			c-5.092-34.702-28.077-60.897-55.676-60.897c-9.055,0-17.607,2.833-25.201,7.847c-3.502,10.648-5.652,22.63-6.217,35.4
			C678.238,387.82,687.677,382.609,698.032,382.609z"/>
		<path fill="#191999" d="M733.633,459.269l18.507,5.714c2.939-6.998,5.049-14.67,6.185-22.79h-20.928
			C736.863,448.246,735.569,453.997,733.633,459.269z"/>
		<path fill="#4242FF" d="M735.132,436.625c0,1.153-0.032,2.298-0.085,3.436l23.666-0.927c0.354-3.537,0.557-7.137,0.557-10.799
			c0-5.513-0.426-10.895-1.215-16.11l-25.446,5.054C734.236,423.343,735.132,429.848,735.132,436.625z"/>
		<path fill="#4242FF" d="M737.928,442.192h20.396c0.179-1.299,0.331-2.608,0.46-3.929l-20.651,0.835
			C738.088,440.139,738.017,441.169,737.928,442.192z"/>
		<path fill="#2929FF" d="M927.545,449.994l-18.367-7.113c-6.187,17.594-19.076,30.178-34.307,31.952
			c5.034,5.316,10.456,9.649,16.117,12.816C906.659,482.16,919.834,467.834,927.545,449.994z"/>
		<path fill="#2929FF" d="M871.162,363.553c17.785,0,32.974,14.717,39.076,35.48l22.756-8.359
			c-6.875-33.374-29.841-57.908-57.132-57.908c-9.437,0-18.352,2.947-26.271,8.164c-4.013,11.076-6.435,23.814-6.934,37.487
			C850.142,369.196,860.154,363.553,871.162,363.553z"/>
		<path fill="#191999" d="M912.819,419.313c0,8.54-1.435,16.633-3.986,23.89l18.614,7.209c3.994-9.455,6.584-20.096,7.387-31.433
			l-22.017,0.24C912.817,419.25,912.819,419.28,912.819,419.313z"/>
		<path fill="#4242FF" d="M912.057,419.485l22.855-0.958c0.115-2.06,0.194-4.135,0.194-6.235c0-7.556-0.78-14.866-2.212-21.817
			l-23.828,8.754C910.918,405.524,911.969,412.348,912.057,419.485z"/>
		<path fill="#4242FF" d="M913.109,419.216l21.725-0.237c0.035-0.502,0.058-1.009,0.087-1.514l-21.827,0.914
			C913.098,418.659,913.109,418.936,913.109,419.216z"/>
		<path d="M900.424,418.91l4.269-0.179v-17.66l5.546-2.038c-6.103-20.764-21.291-35.48-39.076-35.48
			c-11.008,0-21.021,5.644-28.504,14.863c-0.316,8.681,0.14,17.735,1.455,26.979c4.098,28.804,15.691,53.531,30.758,69.438
			c15.23-1.774,28.12-14.358,34.307-31.952l-13.249-5.131L900.424,418.91z"/>
		<path d="M913.109,419.216l-8.417,0.092v-0.576l-4.269,0.179l-4.495,18.84l13.249,5.131c2.519-7.161,3.934-15.146,3.934-23.573
			C913.111,419.276,913.109,419.246,913.109,419.216z"/>
		<path d="M904.692,418.731l8.401-0.353c-0.084-6.816-1.088-13.333-2.855-19.346l-5.546,2.038V418.731z"/>
		<path d="M904.692,419.308l8.417-0.092c0-0.28-0.012-0.557-0.016-0.837l-8.401,0.353V419.308z"/>
		<path d="M729.573,439.444l2.86-0.115v-20.021l3.57-0.732c-5.437-20.928-20.378-35.966-37.972-35.966
			c-10.355,0-19.794,5.211-26.917,13.764c-0.422,9.535,0.037,19.508,1.487,29.698c3.54,24.884,12.371,46.89,24.171,63.285
			c0.419,0.017,0.837,0.042,1.259,0.042c15.96,0,29.745-12.371,36.227-30.29l-4.686-1.471V439.444z"/>
		<path d="M732.434,442.192v-2.863l-2.86,0.115v18.193l4.686,1.471c1.889-5.223,3.148-10.92,3.669-16.916H732.434z"/>
		<path d="M732.434,439.329l5.699-0.23c0.044-1.024,0.072-2.056,0.072-3.095c0-6.105-0.781-11.965-2.201-17.429l-3.57,0.732V439.329
			z"/>
		<path d="M732.434,442.192h5.494c0.089-1.023,0.16-2.054,0.205-3.094l-5.699,0.23V442.192z"/>
		<ellipse cx="725.629" cy="436.402" rx="12.298" ry="27.069"/>
	</g>
	<g>
		<path fill="#FFFFFF" d="M881.141,372.947c-0.512-15.429-13.436-27.521-28.864-27.009c-1.682,0.056-3.32,0.268-4.91,0.605
			c-3.563,12.823-5.334,27.221-4.831,42.384c0.125,3.76,0.391,7.461,0.778,11.096c3.354,1.271,7.009,1.915,10.817,1.788
			C869.561,401.299,881.652,388.376,881.141,372.947z"/>
		<path fill="#FFFFFF" d="M882.849,455.379c1.063-11.534-7.428-21.745-18.962-22.806c-4.583-0.423-8.945,0.683-12.62,2.87
			c4.28,15.183,11.957,27.56,20.852,36.34C878.341,468.632,882.162,462.839,882.849,455.379z"/>
	</g>
	<g>
		<path fill="#EAE8EB" d="M825.264,375c0,0,47.355-15.738,155.111-26.473l-23.911-74.202l-137.799,56.7L825.264,375z"/>
		<path fill="#EAE8EB" d="M825.264,375c0,0,47.355-15.738,155.111-26.473l-23.911-74.202l-137.799,56.7L825.264,375z"/>
		<path fill="#EAE8EB" d="M825.264,375c0,0,47.355-15.738,155.111-26.473l-23.911-74.202l-137.799,56.7L825.264,375z"/>
		<path fill="#EAE8EB" d="M825.264,375c0,0,47.355-15.738,155.111-26.473l-23.911-74.202l-137.799,56.7L825.264,375z"/>
	</g>
	<g>
		<path d="M674.686,406.722c0,0.001-1.099,0.08-2.785,0.279c-1.68,0.196-3.916,0.521-6.13,0.968
			c-2.214,0.443-4.401,1.031-5.987,1.641c-0.405,0.135-0.75,0.312-1.071,0.441c-0.323,0.13-0.591,0.267-0.808,0.389
			c-0.44,0.234-0.692,0.369-0.692,0.369s0.228-0.174,0.624-0.479c0.197-0.158,0.443-0.34,0.742-0.521
			c0.299-0.183,0.622-0.421,1.003-0.623c1.495-0.877,3.607-1.838,5.771-2.657c2.164-0.823,4.371-1.526,6.043-2.007
			c1.661-0.482,2.814-0.762,2.814-0.761L674.686,406.722z"/>
	</g>
	<g>
		<path d="M674.438,421.031c0,0-0.242,0.037-0.667,0.102c-0.42,0.068-1.021,0.167-1.74,0.285c-1.446,0.242-3.371,0.607-5.281,1.039
			c-0.965,0.194-1.896,0.47-2.793,0.689c-0.891,0.228-1.691,0.52-2.4,0.731c-0.703,0.222-1.244,0.504-1.649,0.659
			c-0.399,0.169-0.628,0.266-0.628,0.266s0.205-0.137,0.563-0.377c0.365-0.227,0.863-0.62,1.52-0.974
			c0.658-0.344,1.415-0.795,2.26-1.193c0.845-0.388,1.74-0.851,2.66-1.227c1.828-0.799,3.684-1.535,5.087-2.058
			c0.707-0.26,1.296-0.477,1.709-0.628c0.41-0.145,0.645-0.228,0.645-0.228L674.438,421.031z"/>
	</g>
	<polygon fill="#E6E7E8" points="837.312,386.377 753.5,366.439 742.02,304.3 837.312,304.3 	"/>
	<g>
		<path fill="#FFFFFF" d="M705.668,398.468c-0.776-14.565-13.214-25.744-27.778-24.967c-1.395,0.075-2.757,0.258-4.081,0.537
			c-2.84,11.831-4.072,24.718-3.356,38.135c0.235,4.425,0.68,8.768,1.31,13.016c2.821,0.839,5.831,1.223,8.939,1.057
			C695.267,425.469,706.444,413.031,705.668,398.468z"/>
		<path fill="#FFFFFF" d="M702.214,466.149c0.367-8.63-6.332-15.922-14.961-16.289c-3.222-0.137-6.255,0.713-8.813,2.277
			c2.984,10.51,7.254,20.088,12.56,28.341C697.243,478.641,701.923,473.013,702.214,466.149z"/>
	</g>
	<path fill="#EAE8EB" d="M810.323,380.06c0,0-52.75-11.495-148.805,14.021l0.975-135.417l141.029,96.378L810.323,380.06z"/>
	<g>
		<path d="M972.844,349.292c-2.67,0.287-5.352,0.498-8.002,0.804l-7.958,0.903c-2.649,0.337-5.296,0.646-7.937,1.033l-7.915,1.124
			c-2.636,0.391-5.269,0.779-7.896,1.211c-2.629,0.419-5.253,0.865-7.875,1.326l-7.863,1.361c-2.619,0.461-5.235,0.94-7.849,1.438
			l-7.829,1.531l-7.816,1.583c-5.212,1.043-10.413,2.137-15.602,3.283c-5.188,1.141-10.361,2.354-15.523,3.583l-7.736,1.843
			c-2.56,0.627-5.164,1.277-7.646,1.934l3.988-2.869c-0.288,0.682-0.589,1.528-0.807,2.503c-0.207,0.977-0.421,2.048-0.555,3.187
			c-0.142,1.138-0.204,2.335-0.292,3.559c-0.072,1.226-0.09,2.49-0.079,3.769c-0.01,1.278-0.01,2.576,0.039,3.89l0.155,3.97
			l0.23,4.027c0.072,1.353,0.157,2.71,0.268,4.073l0.274,4.113c0.118,1.373,0.142,2.768,0.241,4.156l0.293,4.179
			c0.145,1.387,0.128,2.814,0.219,4.224l0.227,4.25l0.111,4.306c0.079,1.429,0.015,2.901,0.041,4.354
			c0.017,0.726-0.001,1.462-0.026,2.203c-0.018,0.737-0.027,1.478-0.074,2.226l-0.766,0.234c-0.859-2.716-1.646-5.441-2.403-8.181
			c-0.762-2.738-1.468-5.491-2.1-8.263c-1.284-5.537-2.4-11.117-3.256-16.748c-0.844-5.63-1.457-11.313-1.469-17.049
			c0.027-2.864,0.21-5.742,0.707-8.594c0.506-2.839,1.309-5.702,2.893-8.245l0.153-0.246l0.279-0.065
			c10.44-2.444,20.927-4.571,31.453-6.532c10.526-1.953,21.092-3.697,31.692-5.196c10.6-1.51,21.242-2.734,31.915-3.613
			c2.669-0.211,5.338-0.422,8.01-0.585c2.671-0.191,5.347-0.305,8.02-0.446c2.677-0.098,5.351-0.219,8.031-0.26
			c2.681-0.08,5.352-0.067,8.026-0.086L972.844,349.292z"/>
	</g>
	<g>
		<path fill="#000045" d="M642.651,173.734c0,0,42.858-29.563,66.397-103.74c-5.698,62.623-9.601,100.286-9.601,100.286
			s85.986-123.933,207.6-82.81c0,0-45.484,2.526-87.887,45.223c0,0,148.913-12.187,208.955,100.603
			c-50.179-30.984-71.596-10.727-86.878-8.148c0,0,23.531,68.187,92.184,85.036c-92.004,52.761-103.452,43.237-198.366-14.365
			c0,0,24.388,47.156,39.041,60.036c0,0-86.792-20.115-107.472-55.968c0,0-9.767,17.068,1.042,34.615
			c0,0-69.854-46.267-86.77-75.836"/>
		<path fill="none" stroke="#010133" stroke-width="7" stroke-miterlimit="10" d="M642.651,173.734c0,0,42.858-29.563,66.397-103.74
			c-5.698,62.623-9.601,100.286-9.601,100.286s85.986-123.933,207.6-82.81c0,0-45.484,2.526-87.887,45.223
			c0,0,148.913-12.187,208.955,100.603c-50.179-30.984-71.596-10.727-86.878-8.148c0,0,23.531,68.187,92.184,85.036
			c-92.004,52.761-103.452,43.237-198.366-14.365c0,0,24.388,47.156,39.041,60.036c0,0-86.792-20.115-107.472-55.968
			c0,0-9.767,17.068,1.042,34.615c0,0-69.854-46.267-86.77-75.836"/>
		<path fill="#000045" d="M642.651,173.734c0,0,42.858-29.563,66.397-103.74c-5.698,62.623-9.601,100.286-9.601,100.286
			s85.986-123.933,207.6-82.81c0,0-45.484,2.526-87.887,45.223c0,0,148.913-12.187,208.955,100.603
			c-50.179-30.984-71.596-10.727-86.878-8.148c0,0,23.531,68.187,92.184,85.036c-92.004,52.761-103.452,43.237-198.366-14.365
			c0,0,24.388,47.156,39.041,60.036c0,0-86.792-20.115-107.472-55.968c0,0-9.767,17.068,1.042,34.615
			c0,0-69.854-46.267-86.77-75.836"/>
		<path fill="#000045" d="M642.651,173.734c0,0,42.858-29.563,66.397-103.74c-5.698,62.623-9.601,100.286-9.601,100.286
			s85.986-123.933,207.6-82.81c0,0-45.484,2.526-87.887,45.223c0,0,148.913-12.187,208.955,100.603
			c-50.179-30.984-71.596-10.727-86.878-8.148c0,0,23.531,68.187,92.184,85.036c-92.004,52.761-103.452,43.237-198.366-14.365
			c0,0,24.388,47.156,39.041,60.036c0,0-86.792-20.115-107.472-55.968c0,0-9.767,17.068,1.042,34.615
			c0,0-69.854-46.267-86.77-75.836"/>
		<path fill="#000045" d="M642.651,173.734c0,0,42.858-29.563,66.397-103.74c-5.698,62.623-9.601,100.286-9.601,100.286
			s85.986-123.933,207.6-82.81c0,0-45.484,2.526-87.887,45.223c0,0,148.913-12.187,208.955,100.603
			c-50.179-30.984-71.596-10.727-86.878-8.148c0,0,23.531,68.187,92.184,85.036c-92.004,52.761-103.452,43.237-198.366-14.365
			c0,0,24.388,47.156,39.041,60.036c0,0-86.792-20.115-107.472-55.968c0,0-9.767,17.068,1.042,34.615
			c0,0-69.854-46.267-86.77-75.836"/>
	</g>
	<g>
		<path fill="#F1F2F2" d="M789.574,231.489c4.09-1.133,8.218-2.05,12.371-2.88c4.153-0.816,8.331-1.527,12.531-2.091
			c8.398-1.139,16.876-1.792,25.382-1.826c8.502-0.025,17.044,0.578,25.472,2.143c8.417,1.557,16.734,4.146,24.437,8.169l4.57,2.387
			l-5.064,1.237c-4.056,0.991-8.132,2.071-12.173,3.196c-4.044,1.128-8.068,2.317-12.059,3.585
			c-3.988,1.27-7.947,2.619-11.817,4.114c-1.933,0.751-3.845,1.537-5.706,2.384c-0.93,0.425-1.844,0.867-2.74,1.325
			c-0.891,0.463-1.754,0.948-2.586,1.451l0.418-4.107c2.957,2.624,6.044,5.228,9.129,7.776c3.093,2.553,6.223,5.063,9.386,7.53
			c6.329,4.931,12.757,9.734,19.33,14.319c6.569,4.59,13.247,9.01,20.019,13.256c3.372,2.144,6.794,4.204,10.219,6.25
			c3.422,2.054,6.899,4.003,10.374,5.951c3.479,1.942,7.015,3.766,10.557,5.572c3.55,1.79,7.142,3.49,10.778,5.072
			c3.644,1.566,7.312,3.069,11.032,4.414c3.719,1.354,7.493,2.526,11.304,3.546c3.809,1.029,7.668,1.845,11.563,2.403
			c3.892,0.565,7.821,0.883,11.753,0.82c3.929-0.054,7.865-0.443,11.721-1.316c3.858-0.853,7.64-2.167,11.233-3.954l0.355,0.604
			c-3.361,2.308-7.082,4.139-10.99,5.471c-3.913,1.318-7.996,2.171-12.119,2.591c-4.124,0.408-8.287,0.459-12.417,0.167
			c-4.129-0.303-8.231-0.88-12.281-1.679c-4.05-0.807-8.04-1.857-11.979-3.048c-3.941-1.185-7.823-2.542-11.641-4.049
			c-3.819-1.5-7.586-3.119-11.307-4.829c-3.725-1.702-7.367-3.564-10.984-5.465c-3.619-1.896-7.156-3.938-10.672-6.006
			c-3.513-2.073-6.954-4.259-10.373-6.471c-6.815-4.462-13.444-9.182-19.941-14.063c-6.491-4.888-12.886-9.891-19.14-15.064
			c-3.127-2.587-6.228-5.205-9.297-7.86c-3.073-2.666-6.093-5.337-9.105-8.143l-2.57-2.394l2.988-1.714
			c0.987-0.566,1.979-1.088,2.972-1.574c0.995-0.478,1.992-0.93,2.993-1.358c2.001-0.851,4.014-1.62,6.032-2.348
			c4.04-1.446,8.107-2.72,12.19-3.91c4.084-1.188,8.184-2.289,12.296-3.327c4.117-1.037,8.226-2.019,12.393-2.928l-0.495,3.624
			c-7.184-3.987-15.107-6.662-23.223-8.454c-8.132-1.779-16.487-2.641-24.863-2.881c-8.38-0.231-16.793,0.148-25.16,1.014
			c-4.183,0.438-8.359,0.971-12.518,1.636c-4.154,0.671-8.307,1.435-12.395,2.406L789.574,231.489z"/>
	</g>
	<g>
		<path fill="#EAE8EB" d="M680.897,266.259c0,0-4.975-85.393-55.052-119.679c-24.657,24.207-96.034,191.629,32.951,247.994"/>
		<path fill="#B6B4B7" d="M680.897,266.259c-0.847-5.608-1.981-11.149-3.227-16.65c-1.237-5.502-2.703-10.942-4.27-16.331
			c-1.567-5.389-3.331-10.707-5.276-15.936c-0.971-2.616-2.037-5.189-2.887-7.833c-0.854-2.644-1.814-5.251-2.865-7.818
			c-4.154-10.28-9.246-20.174-15.59-29.141c-6.33-8.955-13.965-16.965-22.915-23.082l4.429-0.391
			c-1.857,1.847-3.621,4.125-5.266,6.471c-1.647,2.359-3.203,4.826-4.683,7.35c-2.964,5.048-5.649,10.307-8.138,15.659
			c-4.964,10.718-9.141,21.834-12.581,33.159c-3.43,11.329-6.122,22.883-7.896,34.562c-1.773,11.674-2.643,23.481-2.3,35.232
			c0.331,11.744,1.907,23.438,5.022,34.69c3.128,11.237,7.824,22.023,14.204,31.732c3.181,4.854,6.728,9.481,10.743,13.679
			c1.9,2.193,3.765,4.442,5.797,6.545c2.018,2.117,4.122,4.163,6.301,6.139c4.382,3.924,9.029,7.615,13.945,10.976
			c4.918,3.353,10.037,6.481,15.35,9.304c-5.664-2.011-11.289-4.26-16.701-7.007c-5.428-2.715-10.711-5.8-15.727-9.331
			c-5.002-3.541-9.849-7.404-14.232-11.788c-4.117-4.621-7.951-9.501-11.334-14.685c-6.801-10.352-11.79-21.828-15.09-33.69
			c-3.289-11.878-4.93-24.135-5.275-36.361c-0.357-12.235,0.549-24.451,2.376-36.488c1.829-12.042,4.597-23.911,8.118-35.541
			c3.532-11.627,7.812-23.023,12.93-34.075c2.569-5.522,5.343-10.96,8.452-16.258c1.555-2.649,3.199-5.26,4.985-7.819
			c1.802-2.556,3.701-5.06,6.095-7.451l2.032-2.029l2.397,1.639c9.755,6.669,17.96,15.315,24.674,24.813
			c6.729,9.517,12.048,19.883,16.366,30.565c1.08,2.673,2.104,5.364,3.132,8.054c1.03,2.69,1.75,5.485,2.433,8.278
			c1.371,5.585,2.534,11.202,3.486,16.841c0.957,5.639,1.648,11.31,2.184,16.98c0.271,2.834,0.46,5.676,0.601,8.517
			C680.836,260.58,680.936,263.421,680.897,266.259z"/>
	</g>
	<circle fill="#FFFFFF" cx="734.399" cy="459.314" r="5.454"/>
	<g>
		<path d="M657.795,395.821c2.394-1.182,4.777-2.345,7.264-3.388c2.462-1.11,4.959-2.06,7.475-3.01
			c2.523-0.912,5.056-1.816,7.614-2.636c2.546-0.872,5.128-1.607,7.715-2.343c2.591-0.708,5.187-1.412,7.798-2.047
			c2.605-0.673,5.229-1.247,7.851-1.853c2.624-0.583,5.264-1.089,7.904-1.579c2.641-0.509,5.29-0.943,7.939-1.396
			c2.651-0.43,5.306-0.853,7.965-1.233c2.659-0.388,5.319-0.769,7.988-1.062c5.336-0.621,10.682-1.144,16.034-1.586
			c5.354-0.438,10.715-0.815,16.087-1.074c2.688-0.107,5.375-0.208,8.07-0.271c2.713-0.064,5.355-0.117,8.167-0.11l1.896,0.004
			l1.936,1.376c1.798,1.277,3.186,2.737,4.377,4.178c1.2,1.442,2.134,2.938,2.976,4.413c1.695,2.944,2.85,5.927,3.876,8.863
			c0.485,1.478,0.903,2.957,1.3,4.429c0.401,1.468,0.735,2.942,1.023,4.417c0.285,1.474,0.581,2.936,0.789,4.41
			c0.21,1.472,0.398,2.94,0.572,4.405c0.146,1.47,0.256,2.939,0.363,4.403c0.112,1.464,0.104,2.939,0.141,4.403l0.028,4.388
			c0.032,1.456-0.127,2.93-0.198,4.388c-0.101,1.462-0.189,2.919-0.329,4.376l-0.584,4.372c-0.173,1.452-0.518,2.911-0.791,4.36
			c-0.135,0.725-0.31,1.45-0.501,2.175c-0.185,0.725-0.366,1.446-0.602,2.172l-0.799,0.027c-0.307-5.66-0.894-11.313-1.483-16.951
			c-0.62-5.637-1.398-11.256-2.427-16.824c-1.036-5.563-2.299-11.093-4.09-16.427c-0.872-2.672-1.89-5.296-3.165-7.771
			c-1.28-2.456-2.842-4.812-4.932-6.501l0.415,0.15c-5.285-0.124-10.598-0.096-15.896-0.009c-5.303,0.098-10.604,0.276-15.901,0.535
			c-10.595,0.511-21.173,1.369-31.706,2.595c-2.631,0.326-5.266,0.633-7.889,1.015c-2.628,0.35-5.245,0.768-7.866,1.167
			c-2.613,0.438-5.233,0.845-7.835,1.349c-2.609,0.468-5.205,1.004-7.799,1.544c-2.586,0.578-5.18,1.126-7.745,1.791
			c-2.576,0.62-5.129,1.327-7.68,2.042c-1.276,0.354-2.536,0.766-3.805,1.146c-1.271,0.374-2.527,0.788-3.776,1.221
			c-2.514,0.813-4.994,1.771-7.48,2.703L657.795,395.821z"/>
	</g>
	<g>
		<path fill="#EAE8EB" d="M637.309,336.675c0,0-47.77-42.537-14.32-143.317"/>
		<path fill="#B6B4B7" d="M637.309,336.675c0,0-1.971-1.358-4.894-4.368c-2.915-2.999-6.774-7.66-10.441-13.905
			c-1.846-3.112-3.637-6.611-5.289-10.427c-1.578-3.837-3.192-7.934-4.39-12.313c-0.683-2.168-1.15-4.426-1.723-6.692
			c-0.437-2.29-0.989-4.597-1.305-6.955c-0.348-2.354-0.742-4.725-0.925-7.125c-0.113-1.198-0.226-2.398-0.339-3.6l-0.198-3.614
			c-0.156-2.412-0.13-4.822-0.142-7.224c-0.063-2.403,0.132-4.787,0.22-7.154c0.06-2.37,0.342-4.703,0.554-7.011
			c0.186-2.312,0.515-4.576,0.848-6.8c0.162-1.112,0.323-2.214,0.483-3.307c0.183-1.087,0.4-2.159,0.613-3.218
			c0.444-2.115,0.79-4.199,1.286-6.193c0.486-1.997,0.932-3.941,1.411-5.811c0.458-1.874,1.06-3.645,1.551-5.362
			c0.525-1.709,0.973-3.36,1.497-4.901c0.548-1.533,1.068-2.987,1.557-4.353c0.494-1.363,0.931-2.644,1.382-3.813
			c0.481-1.159,0.922-2.223,1.321-3.184c0.789-1.923,1.468-3.41,1.905-4.432c0.455-1.015,0.697-1.556,0.697-1.556
			s-0.109,0.584-0.315,1.681c-0.223,1.089-0.512,2.698-0.956,4.715c-0.213,1.01-0.45,2.128-0.707,3.346
			c-0.207,1.23-0.48,2.545-0.746,3.955c-0.271,1.407-0.56,2.903-0.864,4.481c-0.273,1.581-0.56,3.242-0.859,4.977
			c-0.643,3.455-1.119,7.23-1.733,11.189c-0.315,1.979-0.473,4.035-0.725,6.12c-0.12,1.042-0.241,2.096-0.363,3.16
			c-0.089,1.066-0.179,2.143-0.269,3.228c-0.173,2.17-0.412,4.369-0.489,6.604c-0.092,2.233-0.287,4.489-0.295,6.765
			c-0.032,2.275-0.13,4.568-0.065,6.866c0.031,2.299,0.029,4.607,0.192,6.906l0.157,3.452c0.099,1.146,0.197,2.29,0.294,3.433
			c0.119,1.14,0.165,2.287,0.317,3.416c0.138,1.132,0.275,2.26,0.412,3.384c0.117,1.128,0.304,2.239,0.486,3.345
			c0.172,1.109,0.344,2.212,0.514,3.309c0.216,1.088,0.43,2.168,0.643,3.242c0.208,1.075,0.406,2.145,0.67,3.189
			c0.245,1.05,0.488,2.091,0.729,3.123c0.272,1.024,0.542,2.038,0.809,3.041c0.491,2.023,1.162,3.94,1.725,5.843
			c0.664,1.862,1.273,3.697,1.961,5.43c0.633,1.761,1.343,3.419,2.021,5.02c1.432,3.158,2.801,6.05,4.174,8.535
			c1.391,2.47,2.646,4.621,3.785,6.328c1.146,1.698,2.07,3.035,2.753,3.906C636.924,336.221,637.309,336.675,637.309,336.675z"/>
	</g>
	<ellipse cx="901.38" cy="415.337" rx="11.713" ry="24.663"/>
	<ellipse cx="899.859" cy="417.813" rx="13.234" ry="29.063"/>
	<circle fill="#FFFFFF" cx="915.592" cy="439.303" r="6.414"/>
</g>
</svg>
